<?xml version="1.0" standalone="no"?>
<!DOCTYPE svg PUBLIC "-//W3C//DTD SVG 1.1//EN" "http://www.w3.org/Graphics/SVG/1.1/DTD/svg11.dtd">
<svg xmlns="http://www.w3.org/2000/svg">
<metadata>Generated by Fontastic.me</metadata>
<defs>
<font id="brandworkz-filled" horiz-adv-x="512">
<font-face font-family="brandworkz-filled" units-per-em="512" ascent="480" descent="-32"/>
<missing-glyph horiz-adv-x="512" />

<glyph glyph-name="door-exit" unicode="&#97;" d="M209 510c-2 2-6 2-9 2l-192-43c-5-1-8-5-8-10l0-406c0-5 3-9 8-10l192-43c1 0 2 0 3 0 2 0 4 1 6 2 3 2 4 5 4 9l0 490c0 4-1 7-4 9z m-81-307c-24 0-43 19-43 42 0 24 19 43 43 43 24 0 43-19 43-43 0-23-19-42-43-42z m160 10c-18 0-32 15-32 32 0 18 14 32 32 32l96 0 0 182c0 6-5 10-11 10l-138 0 0-426 138 0c6 0 11 4 11 10l0 160z m0 22l188 0-68-67c-4-5-4-11 0-16 5-4 11-4 16 0l85 86c4 4 4 11 0 15l-85 85c-5 4-11 4-16 0-4-4-4-11 0-15 0 0 42-41 68-67l-188 0c-6 0-11-5-11-11 0-6 5-10 11-10z"/>
<glyph glyph-name="video-meeting-circle" unicode="&#98;" d="M256 512c-141 0-256-115-256-256 0-141 115-256 256-256 141 0 256 115 256 256 0 141-115 256-256 256z m149-331c0-8-9-13-16-9l-69 43 0-55c0-6-5-11-11-11l-192 0c-6 0-10 5-10 11l0 192c0 6 4 11 10 11l192 0c6 0 11-5 11-11l0-55 69 43c7 4 16-1 16-9z"/>
<glyph glyph-name="volume-low-1" unicode="&#99;" d="M259 488l-146-147-70 0c-24 0-43-19-43-42l0-64c0-24 19-43 43-43l70 0 146-146c7-7 18-2 18 7l0 427c0 9-11 14-18 8z m78-138c-5 3-11 2-15-2-3-5-2-12 2-15 51-37 52-95 0-132-4-4-5-10-2-15 4-5 10-6 15-3 63 46 63 121 0 167z"/>
<glyph glyph-name="account-circle-1" unicode="&#100;" d="M256 512c-141 0-256-115-256-256 0-68 26-132 74-180l0 0c49-49 113-76 182-76 69 0 134 27 182 76 48 48 74 112 74 180 0 141-115 256-256 256z m173-414c-23 13-110 45-120 48l0 39c11 7 30 24 32 63 8 5 14 16 14 29 0 13-5 23-12 28 6 16 15 46 9 71-8 30-48 40-80 40-29 0-64-8-76-31-15 1-24-6-28-11-13-18-4-51 1-69-7-5-12-15-12-28 0-13 6-24 14-29 2-39 21-56 32-63l0-39c-9-3-96-35-119-49-40 44-63 100-63 159 0 129 106 235 235 235 129 0 235-106 235-235 0-59-22-115-62-158z"/>
<glyph glyph-name="door-enter" unicode="&#101;" d="M501 256l-187 0 67 67c4 4 4 11 0 15-4 4-11 4-15 0l-86-85c-4-4-4-11 0-15l86-86c4-4 11-4 15 0 4 5 4 11 0 16 0 0-42 41-67 67l187 0c6 0 11 4 11 10 0 6-5 11-11 11z m-292 254c-2 2-6 2-9 2l-192-43c-5-1-8-5-8-10l0-406c0-5 3-9 8-10l192-43c1 0 2 0 3 0 2 0 4 1 6 2 3 2 4 5 4 9l0 490c0 4-1 7-4 9z m-81-307c-24 0-43 19-43 42 0 24 19 43 43 43 24 0 43-19 43-43 0-23-19-42-43-42z m223-66l-86 86c-12 12-12 33 0 45l86 85c8 9 22 11 33 8l0 98c0 6-5 10-11 10l-138 0 0-426 138 0c6 0 11 4 11 10l0 77c-11-4-24-1-33 7z"/>
<glyph glyph-name="home-1" unicode="&#102;" d="M430 355c2-2 5-3 7-3 6 0 11 5 11 11l0 96c0 6-5 10-11 10l-96 0c-4 0-8-2-10-6-1-4 0-9 3-12z m-366-112l0-243 149 0 0 149 86 0 0-149 149 0 0 243-192 192z m445-1c0 0 0 0 0 0l-245 246c-5 4-11 4-16 0l-245-246c-4-4-4-10 0-15 5-4 11-4 15 0 0 0 0 0 0 0l238 238 238-238c0 0 0 0 0 0 4-4 11-4 15 0 0 0 0 0 0 0 4 4 4 10 0 15z"/>
<glyph glyph-name="delete-1" unicode="&#103;" d="M256 512c-141 0-256-115-256-256 0-141 115-256 256-256 141 0 256 115 256 256 0 141-115 256-256 256z m7-437c-46 0-76 15-109 37l246 246c14-22 37-54 37-109 0-96-78-174-174-174z m-14 362c45 0 76-15 108-37l-245-245c-15 21-37 54-37 108 0 96 78 174 174 174z"/>
<glyph glyph-name="help-circle" unicode="&#104;" d="M245 491c-135 0-245-110-245-246 0-135 110-245 245-245 136 0 246 110 246 245 0 136-110 246-246 246z m0-384c-11 0-21 9-21 21 0 12 10 21 21 21 12 0 22-9 22-21 0-12-10-21-22-21z m11 128l0-54c0-6-5-10-11-10-6 0-10 4-10 10l0 64c0 6 4 11 10 11 30 0 54 24 54 53 0 30-24 54-54 54-29 0-53-24-53-54 0-6-5-10-11-10-6 0-10 4-10 10 0 42 33 75 74 75 42 0 75-33 75-75 0-37-28-68-64-74z"/>
<glyph glyph-name="search" unicode="&#105;" d="M192 128c45 0 87 16 120 42l164-164c8-8 21-8 30 0 8 9 8 22 0 30l-164 165c26 33 42 74 42 119 0 106-86 192-192 192-106 0-192-86-192-192 0-106 86-192 192-192z m0 341c82 0 149-67 149-149 0-82-67-149-149-149-82 0-149 67-149 149 0 82 67 149 149 149z"/>
<glyph glyph-name="download-harddrive-1" unicode="&#110;" d="M152 323l86-85c4-4 11-4 15 0l85 85c4 4 4 11 0 15-4 4-11 4-15 0l-67-67 0 230c0 6-5 11-11 11-6 0-10-5-10-11l0-230-67 67c-5 4-11 4-16 0-4-4-4-11 0-15z m358-178l-107 128c-2 3-5 4-8 4l-32 0c-6 0-11-4-11-10 0-6 5-11 11-11l27 0 89-107-446 0 89 107 17 0c6 0 10 5 10 11 0 6-4 10-10 10l-22 0c-3 0-6-1-8-4l-107-128c-1-1-2-4-2-6l0-86c0-29 24-53 53-53l406 0c29 0 53 24 53 53l0 86c0 2-1 5-2 6z m-83-81l-86 0c-6 0-10 5-10 11 0 6 4 10 10 10l86 0c6 0 10-4 10-10 0-6-4-11-10-11z"/>
<glyph glyph-name="book-1" unicode="&#111;" d="M416 427c-1 0-1 0-278-32-17 0-31 14-31 32 0 22 0 24 97 38 40 5 96 13 171 26 6 1 10 6 9 12-1 6-7 10-12 9-76-13-131-21-171-26-93-13-116-16-116-59l0-352c0-59 49-75 75-75 0 0 1 0 1 0l256 32c6 1 10 5 10 11l0 373c0 6-5 11-11 11z m-277-2c0-5 5-9 10-9 1 0 1 0 2 0l245 32c6 1 10 6 9 12-1 6-6 10-12 9l-245-32c-6-1-10-6-9-12z"/>
<glyph glyph-name="folder-hierarchy-1" unicode="&#113;" d="M459 427l-135 0-18 18c-2 2-4 3-7 3l-54 0c-6 0-10-5-10-11l0-170c0-6 4-11 10-11l214 0c6 0 10 5 10 11l0 149c0 6-4 11-10 11z m0-235l-135 0-18 18c-2 2-4 3-7 3l-54 0c-6 0-10-4-10-10l0-171c0-6 4-11 10-11l214 0c6 0 10 5 10 11l0 149c0 6-4 11-10 11z m-374 299c0-12-9-22-21-22-12 0-21 10-21 22 0 11 9 21 21 21 12 0 21-10 21-21z m0-64c0-12-9-22-21-22-12 0-21 10-21 22 0 11 9 21 21 21 12 0 21-10 21-21z m0-64c0-12-9-22-21-22-12 0-21 10-21 22 0 11 9 21 21 21 12 0 21-10 21-21z m64 0c0-12-9-22-21-22-12 0-21 10-21 22 0 11 9 21 21 21 12 0 21-10 21-21z m64 0c0-12-9-22-21-22-12 0-21 10-21 22 0 11 9 21 21 21 12 0 21-10 21-21z m-64-256c0-12-9-22-21-22-12 0-21 10-21 22 0 11 9 21 21 21 12 0 21-10 21-21z m64 0c0-12-9-22-21-22-12 0-21 10-21 22 0 11 9 21 21 21 12 0 21-10 21-21z m-128 192c0-12-9-22-21-22-12 0-21 10-21 22 0 11 9 21 21 21 12 0 21-10 21-21z m0-64c0-12-9-22-21-22-12 0-21 10-21 22 0 11 9 21 21 21 12 0 21-10 21-21z m0-64c0-12-9-22-21-22-12 0-21 10-21 22 0 11 9 21 21 21 12 0 21-10 21-21z m0-64c0-12-9-22-21-22-12 0-21 10-21 22 0 11 9 21 21 21 12 0 21-10 21-21z"/>
<glyph glyph-name="share" unicode="&#114;" d="M416 192c-34 0-63-17-80-44l-150 75c8 21 8 45 0 66l150 75c17-27 46-44 80-44 53 0 96 43 96 96 0 53-43 96-96 96-66 0-113-66-90-129l-149-75c-18 27-48 44-81 44-53 0-96-43-96-96 0-53 43-96 96-96 33 0 63 17 81 44l149-75c-23-63 24-129 90-129 53 0 96 43 96 96 0 53-43 96-96 96z"/>
<glyph glyph-name="copy-1" unicode="&#107;" d="M117 43c-6 0-10 4-10 10l0 395-32 0c-6 0-11-5-11-11l0-426c0-6 5-11 11-11l298 0c6 0 11 5 11 11l0 32z m331 330c0 3-1 6-3 8l-128 128c-2 2-5 3-8 3l-170 0c-6 0-11-5-11-11l0-426c0-6 5-11 11-11l298 0c6 0 11 5 11 11z m-149-10l0 128 128-128z"/>
<glyph glyph-name="pencil-2-1" unicode="&#116;" d="M7 19c0-3 1-7 3-10 3-2 7-3 10-3 0 0 140 33 141 34l-120 120c-1-1-34-141-34-141z m331 439l15 15 121-121-16-15z m-282-283l267 267 120-120-267-267z m433 192l7 8c21 20 21 54 0 75l-45 45c-10 10-24 16-38 16-14 0-27-6-37-16l-8-7z"/>
<glyph glyph-name="bin-1" unicode="&#106;" d="M491 448l-150 0 0 53c0 6-4 11-10 11l-171 0c-6 0-11-5-11-11l0-53-128 0c-6 0-10-5-10-11 0-6 4-10 10-10l43 0 0-416c0-6 5-11 11-11l341 0c6 0 11 5 11 11l0 416 64 0c6 0 10 4 10 10 0 6-4 11-10 11z m-320-331c0-6-5-10-11-10-6 0-11 4-11 10l0 235c0 6 5 11 11 11 6 0 11-5 11-11z m0 374l149 0 0-43-149 0z m85-374c0-6-5-10-11-10-6 0-10 4-10 10l0 235c0 6 4 11 10 11 6 0 11-5 11-11z m85 0c0-6-4-10-10-10-6 0-11 4-11 10l0 235c0 6 5 11 11 11 6 0 10-5 10-11z"/>
<glyph glyph-name="clock-2-1" unicode="&#109;" d="M256 512c-141 0-256-115-256-256 0-141 115-256 256-256 141 0 256 115 256 256 0 141-115 256-256 256z m125-381c-4-4-11-4-15 0l-128 117c-2 2-3 5-3 8l0 117c0 6 4 11 10 11 6 0 11-5 11-11l0-112 125-114c4-4 4-11 0-16z"/>
<glyph glyph-name="hide" unicode="&#108;" d="M510 252c-1 1-17 36-60 72-10 7-23 6-30-3-8-9-6-23 3-30 22-18 35-35 42-46-26-31-107-119-209-119-9 0-19 1-29 2-11 2-22-6-24-18-2-11 6-22 18-24 12-2 23-3 35-3 145 0 248 142 252 148 4 6 5 14 2 21z m-449-88c9-8 23-7 30 3 8 9 6 22-3 30-21 17-34 34-41 44 26 31 107 120 209 120 7 0 13-1 20-2 12-1 22 8 24 19 1 12-8 23-19 24-9 1-17 1-25 1-145 0-248-141-252-147-4-7-5-15-2-21 0-2 16-36 59-71z m207 2c47 0 86 38 86 85 0 9-2 18-4 26l-107-107c8-3 17-4 25-4z m-85 85c0-6 1-12 2-18l102 101c-6 2-12 3-19 3-47 0-85-39-85-86z m309 228c-8 8-22 9-30 0 0 0 0 0 0 0l-416-416c-8-6-10-21 0-30 0 0 0 0 0 0 8-8 22-8 30 0 0 0 0 0 0 0l416 416c8 8 8 22 0 30z"/>
<glyph glyph-name="cursor-move-3" unicode="&#112;" d="M6 241l61-61c9-9 22-9 31 0 8 8 8 22 0 30l-25 25 162 0 0-162-25 25c-8 8-22 8-30 0-9-9-9-22 0-31l61-61c8-8 22-8 30 0 0 0 0 0 0 0l61 61c9 9 9 22 0 31-8 8-22 8-30 0l-25-25 0 162 162 0-25-25c-8-8-8-22 0-30 9-9 22-9 31 0l61 61c8 8 8 22 0 30l-61 61c-9 9-22 9-31 0-8-8-8-22 0-30l25-25-162 0 0 162 25-25c8-8 22-8 30 0 9 9 9 22 0 31l-61 61c0 0 0 0 0 0-9 8-22 8-30 0l0 0-61-61c-9-9-9-22 0-31 8-8 22-8 30 0l25 25 0-162-162 0 25 25c8 8 8 22 0 30-9 9-22 9-31 0l-61-61c-8-8-8-22 0-30z"/>
<glyph glyph-name="navigation-show-more-1" unicode="&#115;" d="M128 256c0-35-29-64-64-64-35 0-64 29-64 64 0 35 29 64 64 64 35 0 64-29 64-64z m192 0c0-35-29-64-64-64-35 0-64 29-64 64 0 35 29 64 64 64 35 0 64-29 64-64z m192 0c0-35-29-64-64-64-35 0-64 29-64 64 0 35 29 64 64 64 35 0 64-29 64-64z"/>
<glyph glyph-name="folder-add" unicode="&#117;" d="M373 299c27 0 53-7 75-19l0 136c0 6-5 11-11 11l-32 0 0 32c0 6-4 10-10 10l-267 0 0 32c0 6-5 11-11 11l-106 0c-6 0-11-5-11-11l0-330c0-24 19-43 43-43l171 0c-6 94 68 171 159 171z m-309 117l0-245c0-12-10-22-21-22-12 0-22 10-22 22l0 320 86 0 0-32c0-6 4-11 10-11l267 0 0-21-309 0c-6 0-11-5-11-11z m309-139c-76 0-138-62-138-138 0-77 62-139 138-139 77 0 139 62 139 139 0 76-62 138-139 138z m59-149l-48 0 0-48c0-5-5-10-11-10-6 0-10 5-10 10l0 48-48 0c-6 0-11 5-11 11 0 6 5 10 11 10l48 0 0 48c0 6 4 11 10 11 6 0 11-5 11-11l0-48c68 0 32 0 48 0 5 0 10-4 10-10 0-6-5-11-10-11z"/>
<glyph glyph-name="cloud-upload" unicode="&#118;" d="M381 377c-27 50-79 82-136 82-77 0-141-58-152-133-50 4-93-37-93-87 0-70 60-89 92-90l121 0 0 51c0 0-9-9-9-9-13-13-33-13-45 0-13 12-13 32 0 45l64 64c12 12 33 12 45 0 0 0 64-64 64-64 12-13 12-33 0-45-13-13-33-13-45 0 0 0-10 9-10 9l0-51 113 0c1 1 101 17 101 115 0 62-49 111-110 113z m-207-171c0 0 0 0 0 0 4-4 11-4 15 0 0 0 0 0 0 0l46 46 0-209c0-6 4-11 10-11 6 0 11 5 11 11l0 209 46-46c4-4 11-4 15 0 4 4 4 11 0 15l-64 64c-4 4-11 4-15 0l-64-64c-4-4-4-11 0-15z"/>
<glyph glyph-name="account-group-1" unicode="&#119;" d="M501 137c-8 25-48 50-138 84l0 19c10 6 29 24 31 62 8 5 13 16 13 29 0 12-4 22-10 27 5 15 14 41 8 65-4 15-20 32-40 39-18 7-36 5-51-5-5-3-6-10-3-15 3-4 10-6 15-3 12 8 24 6 32 3 15-6 25-18 26-24 5-19-3-41-8-54-2-6-3-9-3-12 0-6 4-10 10-10 1-1 3-4 3-11 0-7-2-10-2-11-6 0-11-4-11-10 0-43-24-54-25-54-4-2-7-6-7-10l0-32c0-5 3-9 7-10 31-12 124-47 133-73 7-22 9-67 10-88l-32 0c-6 0-11-5-11-11 0-6 5-10 11-10l42 0c6 0 11 4 11 10 0 3 0 74-11 105z m-383 176c2-38 21-56 31-63l0-40c-9-3-18-6-27-10-55-19-103-36-111-63-11-31-11-102-11-105 0-6 5-10 11-10l384 0c6 0 10 4 10 10 0 3 0 74-10 105-9 27-53 43-109 63-10 3-20 7-30 10l0 40c10 7 29 25 32 63 8 5 13 15 13 29 0 12-4 21-11 27 6 13 14 37 8 61-7 28-47 38-79 38-29 0-64-8-76-29-15 1-24-6-28-11-11-15-6-38 0-59-7-5-11-15-11-28 0-13 5-23 14-28z"/>
<glyph glyph-name="arrange-letter" unicode="&#120;" d="M177 175l-28-28 0 269c0 12-9 21-21 21-12 0-21-9-21-21l0-269-28 28c-8 8-22 8-30 0-8-8-8-22 0-30l64-64c8-8 22-8 30 0l64 64c8 8 8 22 0 30-8 8-22 8-30 0z m152 82c11-3 23 3 26 15l9 27 61 0 9-27c4-12 16-18 27-15 11 3 18 15 14 26l-60 213c-6 21-35 21-41 0l-60-213c-3-11 3-23 15-26z m66 155l18-71-37 0z m55-369l-73 0 91 138c9 14-1 32-18 32l-111 0c-12 0-21-9-21-21 0-12 9-21 21-21l73 0-91-139c-9-14 2-32 18-32l111 0c12 0 21 10 21 21 0 12-9 22-21 22z"/>
<glyph glyph-name="filter-2" unicode="&#121;" d="M501 512l-490 0c-9 0-14-11-9-17l211-255 0-229c0-10 12-15 19-8l64 64c2 2 3 5 3 8l0 165 211 255c5 6 0 17-9 17z"/>
<glyph glyph-name="view-list" unicode="&#122;" d="M501 491l-320 0c-6 0-10-5-10-11l0-107c0-6 4-10 10-10l320 0c6 0 11 4 11 10l0 107c0 6-5 11-11 11z m0-171l-320 0c-6 0-10-5-10-11l0-106c0-6 4-11 10-11l320 0c6 0 11 5 11 11l0 106c0 6-5 11-11 11z m0-171l-320 0c-6 0-10-4-10-10l0-107c0-6 4-11 10-11l320 0c6 0 11 5 11 11l0 107c0 6-5 10-11 10z m-384 342l-106 0c-6 0-11-5-11-11l0-107c0-6 5-10 11-10l106 0c6 0 11 4 11 10l0 107c0 6-5 11-11 11z m0-171l-106 0c-6 0-11-5-11-11l0-106c0-6 5-11 11-11l106 0c6 0 11 5 11 11l0 106c0 6-5 11-11 11z m0-171l-106 0c-6 0-11-4-11-10l0-107c0-6 5-11 11-11l106 0c6 0 11 5 11 11l0 107c0 6-5 10-11 10z"/>
<glyph glyph-name="view-module-1" unicode="&#65;" d="M309 512l-128 0c-6 0-10-5-10-11l0-128c0-6 4-10 10-10l128 0c6 0 11 4 11 10l0 128c0 6-5 11-11 11z m-170 0l-128 0c-6 0-11-5-11-11l0-128c0-6 5-10 11-10l128 0c6 0 10 4 10 10l0 128c0 6-4 11-10 11z m341 0l-128 0c-6 0-11-5-11-11l0-128c0-6 5-10 11-10l128 0c6 0 11 4 11 10l0 128c0 6-5 11-11 11z m-171-171l-128 0c-6 0-10-4-10-10l0-128c0-6 4-11 10-11l128 0c6 0 11 5 11 11l0 128c0 6-5 10-11 10z m-170 0l-128 0c-6 0-11-4-11-10l0-128c0-6 5-11 11-11l128 0c6 0 10 5 10 11l0 128c0 6-4 10-10 10z m341 0l-128 0c-6 0-11-4-11-10l0-128c0-6 5-11 11-11l128 0c6 0 11 5 11 11l0 128c0 6-5 10-11 10z m-171-170l-128 0c-6 0-10-5-10-11l0-128c0-6 4-11 10-11l128 0c6 0 11 5 11 11l0 128c0 6-5 11-11 11z m-170 0l-128 0c-6 0-11-5-11-11l0-128c0-6 5-11 11-11l128 0c6 0 10 5 10 11l0 128c0 6-4 11-10 11z m341 0l-128 0c-6 0-11-5-11-11l0-128c0-6 5-11 11-11l128 0c6 0 11 5 11 11l0 128c0 6-5 11-11 11z"/>
<glyph glyph-name="view-module-2" unicode="&#66;" d="M224 512l-213 0c-6 0-11-5-11-11l0-213c0-6 5-11 11-11l213 0c6 0 11 5 11 11l0 213c0 6-5 11-11 11z m277 0l-213 0c-6 0-11-5-11-11l0-213c0-6 5-11 11-11l213 0c6 0 11 5 11 11l0 213c0 6-5 11-11 11z m-277-277l-213 0c-6 0-11-5-11-11l0-213c0-6 5-11 11-11l213 0c6 0 11 5 11 11l0 213c0 6-5 11-11 11z m277 0l-213 0c-6 0-11-5-11-11l0-213c0-6 5-11 11-11l213 0c6 0 11 5 11 11l0 213c0 6-5 11-11 11z"/>
<glyph glyph-name="view-2" unicode="&#67;" d="M2 249c5-5 115-142 254-142 139 0 249 137 254 142 3 4 3 10 0 14-5 5-115 142-254 142-139 0-249-137-254-142-3-4-3-10 0-14z m254 103c53 0 96-43 96-96 0-53-43-96-96-96-53 0-96 43-96 96 0 53 43 96 96 96z m75-96c0-41-34-75-75-75-41 0-75 34-75 75 0 41 34 75 75 75 41 0 75-34 75-75z"/>
<glyph glyph-name="folder-1" unicode="&#68;" d="M501 384l-53 0 0 32c0 6-5 11-11 11l-266 0 0 32c0 6-5 10-11 10l-149 0c-6 0-11-4-11-10l0-352c0-36 29-64 64-64l373 0c42 0 75 33 75 74l0 256c0 6-5 11-11 11z m-74 0l-310 0c-6 0-10-5-10-11l0-266c0-24-19-43-43-43-24 0-43 19-43 43l0 341 128 0 0-32c0-6 5-11 11-11l267 0z"/>
<glyph glyph-name="floppy-disk" unicode="&#70;" d="M501 512l-426 0c-3 0-6-1-8-3l-64-64c-2-2-3-5-3-8l0-426c0-6 5-11 11-11l490 0c6 0 11 5 11 11l0 490c0 6-5 11-11 11z m-74-480c0-6-5-11-11-11l-320 0c-6 0-11 5-11 11l0 43c0 6 5 10 11 10l320 0c6 0 11-4 11-10z m-246 235c0 41 34 74 75 74 41 0 75-33 75-74 0-42-34-75-75-75-41 0-75 33-75 75z m235-160l-107 0c-6 0-10 4-10 10 0 6 4 11 10 11l107 0c6 0 11-5 11-11 0-6-5-10-11-10z m11 288c0-6-5-11-11-11l-320 0c-6 0-11 5-11 11l0 85c0 6 5 11 11 11l320 0c6 0 11-5 11-11z m-214-96c-6 0-10-5-10-11l0-43c0-6 4-10 10-10 6 0 11 4 11 10l0 43c0 6-5 11-11 11z m54-32c0-6-5-11-11-11-6 0-11 5-11 11 0 6 5 10 11 10 6 0 11-4 11-10z"/>
<glyph glyph-name="add-box" unicode="&#74;" d="M480 512l-469 0c-6 0-11-5-11-11l0-469c0-6 5-11 11-11l469 0c6 0 11 5 11 11l0 469c0 6-5 11-11 11z m-105-256l-119 0 0-117c0-6-5-11-11-11-6 0-10 5-10 11l0 117-118 0c-6 0-10 5-10 11 0 6 4 10 10 10l0 0 118 0 0 118c0 6 4 10 10 10 6 0 11-4 11-10l0-118 119 0c6 0 11-5 11-11 0-5-5-10-11-10z"/>
<glyph glyph-name="report-problem-triangle" unicode="&#76;" d="M490 15l-235 470c-4 7-16 7-19 0l-235-470c-3-7 2-15 10-15l469 0c8 0 13 8 10 15z m-255 302c0 6 4 10 10 10 6 0 11-4 11-10l0-164c0-5-5-10-11-10-6 0-10 5-10 10z m10-255c-11 0-20 9-20 20 0 11 9 20 20 20 12 0 21-9 21-20 0-11-9-20-21-20z"/>
<glyph glyph-name="email-send-3" unicode="&#77;" d="M11 341l106 0c6 0 11 5 11 11 0 6-5 11-11 11l-106 0c-6 0-11-5-11-11 0-6 5-11 11-11z m42-170l-42 0c-6 0-11-5-11-11 0-6 5-11 11-11l42 0c6 0 11 5 11 11 0 6-5 11-11 11z m22 106l-64 0c-6 0-11-4-11-10 0-6 5-11 11-11l64 0c6 0 10 5 10 11 0 6-4 10-10 10z m432 72c-6 9-16 14-27 14l-256 0c-22 0-46-17-55-39l-60-149c-5-13-4-25 2-34 6-8 16-13 27-13l256 0c22 0 46 17 55 39l60 149c5 12 4 24-2 33z m-264-134l-75-53c-5-3-11-2-15 2-3 5-2 12 3 15l74 54c5 3 12 2 15-3 4-5 2-11-2-15z m159-53c-5-4-12-2-15 3l-32 53c-3 6-1 12 4 15 5 3 12 2 15-4l32-53c3-5 1-11-4-14z m55 138l-151-85c-2-1-4-2-6-2-2 0-5 1-7 4l-83 85c-4 4-4 11 0 15 4 4 11 4 15 0l77-80 145 82c5 3 11 1 14-4 3-6 1-12-4-15z"/>
<glyph glyph-name="email-read-2" unicode="&#78;" d="M379 205c-4-4-11-3-14 2-4 5-3 12 2 15l132 91-237 165c-4 3-8 3-12 0l-237-165 132-91c5-3 6-10 2-15-3-5-10-6-14-2l-133 91 0-232c0-24 19-43 43-43l426 0c24 0 43 19 43 43l0 232z m67-104c-3-5-10-6-15-3l-104 73-142 0-104-73c-5-3-12-2-15 3-3 4-2 11 3 14l106 75c2 1 4 2 6 2l150 0c2 0 4-1 6-2 0 0 106-75 106-75 5-3 6-10 3-14z"/>
<glyph glyph-name="infomation-circle" unicode="&#79;" d="M245 491c-135 0-245-110-245-246 0-135 110-245 245-245 136 0 246 110 246 245 0 136-110 246-246 246z m-10-107c11 0 21-10 21-21 0-12-10-22-21-22-12 0-22 10-22 22 0 11 10 21 22 21z m74-299l-128 0c-6 0-10 5-10 11 0 6 4 11 10 11l54 0 0 170-32 0c-6 0-11 5-11 11 0 6 5 11 11 11l42 0c6 0 11-5 11-11l0-181 53 0c6 0 11-5 11-11 0-6-5-11-11-11z"/>
<glyph glyph-name="calendar-2" unicode="&#80;" d="M256 171l85 0 0-64-85 0z m-107 0l86 0 0-64-86 0z m107 85l85 0 0-64-85 0z m-107 0l86 0 0-64-86 0z m-149-245c0-6 5-11 11-11l490 0c6 0 11 5 11 11l0 330-512 0z m53 160c-6 0-10 4-10 10 0 6 4 11 10 11l75 0 0 64-75 0c-6 0-10 5-10 11 0 6 4 10 10 10l75 0 0 32c0 6 5 11 11 11 6 0 10-5 10-11l0-32 86 0 0 32c0 6 4 11 10 11 6 0 11-5 11-11l0-32 85 0 0 32c0 6 5 11 11 11 6 0 11-5 11-11l0-32 96 0c6 0 10-4 10-10 0-6-4-11-10-11l-96 0 0-64 96 0c6 0 10-5 10-11 0-6-4-10-10-10l-96 0 0-64 96 0c6 0 10-5 10-11 0-6-4-11-10-11l-96 0 0-32c0-6-5-10-11-10-6 0-11 4-11 10l0 32-85 0 0-32c0-6-5-10-11-10-6 0-10 4-10 10l0 32-86 0 0-32c0-6-4-10-10-10-6 0-11 4-11 10l0 32-75 0c-6 0-10 5-10 11 0 6 4 11 10 11l75 0 0 64z m448 298l-74 0 0 32c0 6-5 11-11 11l-64 0c-6 0-11-5-11-11l0-32-170 0 0 32c0 6-5 11-11 11l-64 0c-6 0-11-5-11-11l0-32-74 0c-6 0-11-4-11-10l0-96 512 0 0 96c0 6-5 10-11 10z m-352-42l-42 0 0 64 42 0z m256 0l-42 0 0 64 42 0z"/>
<glyph glyph-name="file-video-2-1" unicode="&#81;" d="M466 381l-128 128c-2 2-4 3-7 3l-278 0c-6 0-10-5-10-11l0-490c0-6 4-11 10-11l406 0c6 0 10 5 10 11l0 362c0 3-1 6-3 8z m-167-151l0-91c0-18-15-32-32-32l-107 0c-18 0-32 14-32 32l0 106c0 18 14 32 32 32l107 0c17 0 32-14 32-32z m85-77c0-10-4-17-11-22-3-2-8-4-12-4-4 0-8 1-11 3l-30 14 0 96 29 14c9 4 18 3 24-1 7-5 11-12 11-22z m-64 210l0 128 128-128z"/>
<glyph glyph-name="file-music-1-1" unicode="&#69;" d="M424 381l-128 128c-2 2-5 3-8 3l-235 0c-6 0-10-5-10-11l0-490c0-6 4-11 10-11l363 0c6 0 11 5 11 11l0 362c0 3-1 6-3 8z m-61-137c-1-5-6-10-12-9-6 0-10 5-10 11 2 14-1 25-9 32-11 12-29 15-40 15l-14-149c-1-34-42-61-85-61-32 0-57 16-62 39-6 29 21 59 62 68 23 4 48 2 67-11l11 126c1 5 5 9 10 10 2 0 43 2 66-22 12-12 17-28 16-49z m-86 119l0 128 128-128z"/>
<glyph glyph-name="file-picture-1" unicode="&#82;" d="M424 381l-128 128c-2 2-5 3-8 3l-277 0c-6 0-11-5-11-11l0-490c0-6 5-11 11-11l405 0c6 0 11 5 11 11l0 362c0 3-1 6-3 8z m-275-22c24 0 43-19 43-43 0-23-19-42-43-42-23 0-42 19-42 42 0 24 19 43 42 43z m182-277l-214 0c-8 0-13 8-9 15l53 107c3 6 12 8 17 3l33-33 57 105c5 8 17 7 20-2l53-182c2-6-3-13-10-13z m-54 281l0 128 128-128z"/>
<glyph glyph-name="file-module-edit" unicode="&#83;" d="M360 402l-107 107c-2 2-5 3-8 3l-234 0c-6 0-11-5-11-11l0-448c0-6 5-10 11-10l232 0 14 51c2 5 5 10 8 14l98 97 0 190c0 3-1 5-3 7z m-232-50c0 6 5 11 11 11l64 0c6 0 10-5 10-11l0-64c0-6-4-11-10-11l-64 0c-6 0-11 5-11 11z m21-171c0-6-4-10-10-10l-64 0c-6 0-11 4-11 10l0 64c0 6 5 11 11 11l64 0c6 0 10-5 10-11z m128 0c0-6-4-10-10-10l-64 0c-6 0-11 4-11 10l0 64c0 6 5 11 11 11l64 0c6 0 10-5 10-11z m-42 203l0 107 106-107z m41-302l-20-68c-1-4 0-8 3-11 3-2 6-4 11-3l68 20z m12 18l102 103 69-69-103-102z m221 100l-53 53c-4 4-12 4-16 0l-35-35 69-69 35 36c4 4 4 10 0 15z"/>
<glyph glyph-name="file-new-2" unicode="&#84;" d="M445 381l-128 128c-2 2-5 3-8 3l-234 0c-6 0-11-5-11-11l0-490c0-6 5-11 11-11l362 0c6 0 11 5 11 11l0 362c0 3-1 6-3 8z m-285-18l96 0c6 0 11-5 11-11 0-6-5-11-11-11l-96 0c-6 0-11 5-11 11 0 6 5 11 11 11z m192-278l-192 0c-6 0-11 5-11 11 0 6 5 11 11 11l192 0c6 0 11-5 11-11 0-6-5-11-11-11z m0 64l-192 0c-6 0-11 5-11 11 0 6 5 11 11 11l192 0c6 0 11-5 11-11 0-6-5-11-11-11z m0 64l-192 0c-6 0-11 5-11 11 0 6 5 11 11 11l192 0c6 0 11-5 11-11 0-6-5-11-11-11z m0 64l-192 0c-6 0-11 5-11 11 0 6 5 11 11 11l192 0c6 0 11-5 11-11 0-6-5-11-11-11z m-53 86l0 128 128-128z"/>
<glyph glyph-name="link-3" unicode="&#71;" d="M309 294l-15 15c-34 33-88 33-121 0l-98-98c-33-34-33-88 0-121l15-15c16-16 38-25 60-25 23 0 45 9 61 25l46 46c8 9 8 22 0 30-8 9-22 9-30 0l-46-46c-17-16-45-16-61 0l-15 15c-17 17-17 44 0 61l98 98c16 16 44 16 61 0l15-15c8-9 21-9 30 0 8 8 8 21 0 30z m128 128l-15 15c-16 16-38 25-60 25-23 0-45-9-61-25l-42-42c-8-9-8-22 0-31 8-8 22-8 30 0l42 43c17 16 45 16 61 0l15-15c16-17 16-44 0-61l-98-98c-16-16-44-16-61 0-8 9-21 9-30 0-8-8-8-21 0-30 34-33 88-33 121 0l98 98c33 34 33 88 0 121z"/>
<glyph glyph-name="copy-paste" unicode="&#72;" d="M64 448l-53 0c-6 0-11-5-11-11l0-426c0-6 5-11 11-11l224 0 0 85-171 0c0 159 0 244 0 363z m299-11c0 6-5 11-11 11l-53 0c0-60 0-132 0-192l64 0z m-267-74l171 0c6 0 10 4 10 10l0 86c0 6-4 10-10 10l-33 0c-5 25-27 43-53 43-25 0-47-18-52-43l-33 0c-6 0-11-4-11-10l0-86c0-6 5-10 11-10z m416-182c0 3-1 6-3 8l-43 43c-2 2-4 3-7 3l-192 0c-6 0-11-5-11-11l0-213c0-6 5-11 11-11 83 0 150 0 234 0 6 0 11 5 11 11z m-203 11l107 0c6 0 11-5 11-11 0-6-5-10-11-10l-107 0c-6 0-10 4-10 10 0 6 4 11 10 11z m150-149l-150 0c-6 0-10 4-10 10 0 6 4 11 10 11l150 0c6 0 10-5 10-11 0-6-4-10-10-10z m0 42l-150 0c-6 0-10 5-10 11 0 6 4 11 10 11l150 0c6 0 10-5 10-11 0-6-4-11-10-11z m0 43l-150 0c-6 0-10 5-10 11 0 6 4 10 10 10l150 0c6 0 10-4 10-10 0-6-4-11-10-11z"/>
<glyph glyph-name="navigation-next-1" unicode="&#73;" d="M494 402l-63-64c-61 18-118 28-171 28-164 0-258-91-258-248 0-14 21-14 21 0 0 103 77 118 123 118 44 0 95-13 145-38l-74-73c-7-7-3-18 7-18l277 0c6 0 11 4 11 10l0 278c0 9-12 14-18 7z"/>
<glyph glyph-name="copy-3" unicode="&#75;" d="M469 395c0 3-1 5-3 7l-106 107c-2 2-5 3-8 3l-192 0c-6 0-11-5-11-11l0-32 84 0c3 0 5-1 7-3l120-119c2-2 3-5 3-8l0-275 96 0c6 0 10 5 10 11z m-128-11l0 107 107-107z m-309 64c-6 0-11-5-11-11l0-426c0-6 5-11 11-11l299 0c6 0 10 5 10 11l0 320c0 2-1 5-3 7l-106 107c-2 2-5 3-8 3z m181-128l0 107 107-107z"/>
<glyph glyph-name="bookmark-all-1" unicode="&#85;" d="M168 466c-2 2-5 3-8 3l-149 0c-6 0-11-4-11-10l0-150c0-3 1-5 3-7l299-299c4-4 11-4 15 0l149 149c4 5 4 11 0 16z m-61-146c-24 0-43 19-43 43 0 23 19 42 43 42 23 0 42-19 42-42 0-24-19-43-42-43z m402-88l-277 277c-2 2-5 3-8 3l-149 0c-6 0-11-5-11-11 0-6 5-10 11-10l145 0 266-267-14-14c-4-4-4-11 0-15 5-4 11-4 16 0l21 21c4 5 4 12 0 16z"/>
<glyph glyph-name="hand-tap-swipe-vertical" unicode="&#86;" d="M391 467c-3 3-51 41-54 43-4 3-9 2-13 0l-53-43c-4-4-5-10-2-15 4-5 11-5 15-2l36 29 0-42c0-6 5-10 11-10 6 0 11 4 11 10l0 42 36-29c4-3 11-3 15 2 3 5 3 11-2 15z m1-407c-3 5-10 5-15 2l-36-29 0 42c0 6-4 10-10 10-6 0-11-4-11-10l0-42-36 29c-5 3-11 3-15-2-4-5-3-11 2-15l53-43c4-3 10-2 13 0l54 43c4 4 5 10 1 15z m-151 70c-5 3-7 9-3 14 3 5 9 7 14 4 85-54 196 7 196 108 0 101-111 162-195 109-5-4-12-2-15 3-3 5-2 12 3 15 99 62 229-9 229-127 0-118-130-189-229-126z m79 147c12 0 22-9 22-21 0-12-10-21-22-21l-101 0-25-84c-4-14-18-22-32-19-12 3-86 16-98 18l0 131 98 65c40 26 53-39-13-69z"/>
<glyph glyph-name="arrow-circle-left-3" unicode="&#87;" d="M256 512c-141 0-256-115-256-256 0-141 115-256 256-256 141 0 256 115 256 256 0 141-115 256-256 256z m149-267c0-17-14-32-32-32l-157 0 47-53c12-13 11-33-1-45l-6-7c-6-6-14-9-23-9-8 0-16 4-22 10l-118 124c-12 13-12 33 0 46l120 124c12 12 33 13 45 0l6-6c13-12 13-33 1-45l-48-53 156 0c18 0 32-15 32-32z"/>
<glyph glyph-name="navigation-drawer-1" unicode="&#88;" d="M86 363l319 0c12 0 22 9 22 21 0 12-10 21-22 21l-319 0c-12 0-21-9-21-21 0-12 9-21 21-21z m319-43l-319 0c-12 0-21-10-21-21 0-12 9-22 21-22l319 0c12 0 22 10 22 22 0 11-10 21-22 21z m0-85l-319 0c-12 0-21-10-21-22 0-11 9-21 21-21l319 0c12 0 22 10 22 21 0 12-10 22-22 22z m0-86l-319 0c-12 0-21-9-21-21 0-12 9-21 21-21l319 0c12 0 22 9 22 21 0 12-10 21-22 21z"/>
<glyph glyph-name="remove-circle-1" unicode="&#89;" d="M245 512c-135 0-245-110-245-245 0-136 110-246 245-246 136 0 246 110 246 246 0 135-110 245-246 245z m98-328c5-4 5-11 0-15-4-5-11-5-15 0l-83 83-83-83c-4-5-11-5-15 0-4 4-4 11 0 15l83 83-83 83c-4 4-4 11 0 15 4 4 11 4 15 0l83-83 83 83c4 4 11 4 15 0 5-4 5-11 0-15l-83-83z"/>
<glyph glyph-name="expand-all-1" unicode="&#90;" d="M384 149l0 214c0 11-10 21-21 21l-214 0c-11 0-21-10-21-21l0-214c0-11 10-21 21-21l214 0c11 0 21 10 21 21z m-43 22l-170 0 0 170 170 0z m-213 341l-107 0c-11 0-21-10-21-21l0-107c0-12 10-21 21-21 12 0 22 9 22 21l0 55 49-49c8-8 21-8 30 0 8 9 8 22 0 30l-49 49 55 0c12 0 21 10 21 22 0 11-9 21-21 21z m384-128l0 107c0 11-10 21-21 21l-107 0c-12 0-21-10-21-21 0-12 9-22 21-22l55 0-49-49c-8-8-8-21 0-30 9-8 22-8 30 0l49 49 0-55c0-12 10-21 22-21 11 0 21 9 21 21z m-128-384l107 0c11 0 21 10 21 21l0 107c0 12-10 21-21 21-12 0-22-9-22-21l0-55-49 49c-8 8-21 8-30 0-8-9-8-22 0-30l49-49-55 0c-12 0-21-10-21-22 0-11 9-21 21-21z m-384 128l0-107c0-11 10-21 21-21l107 0c12 0 21 10 21 21 0 12-9 22-21 22l-55 0 49 49c8 8 8 21 0 30-9 8-22 8-30 0l-49-49 0 55c0 12-10 21-22 21-11 0-21-9-21-21z"/>
<glyph glyph-name="window-link-code" unicode="&#48;" d="M512 427l0 32c0 29-24 53-53 53l-342 0c-29 0-53-24-53-53l0-32z m-288 42c6 0 11-4 11-10 0-6-5-11-11-11-6 0-11 5-11 11 0 6 5 10 11 10z m-43 0c6 0 11-4 11-10 0-6-5-11-11-11-6 0-10 5-10 11 0 6 4 10 10 10z m-42 0c6 0 10-4 10-10 0-6-4-11-10-11-6 0-11 5-11 11 0 6 5 10 11 10z m-75-128l139 0c29 0 53-24 53-53l0-117 203 0c29 0 53 24 53 53l0 181-448 0z m139-21l-171 0c-18 0-32-14-32-32l0-235c0-17 14-32 32-32l171 0c17 0 32 15 32 32l0 235c0 18-15 32-32 32z m-48-191l-60-60c-4-4-11-4-15 0-5 4-5 11 0 15l60 60c4 5 11 5 15 0 4-4 4-11 0-15z m2 77l-53-54c-5-4-11-4-16 0-4 5-4 11 0 16l46 45-46 46c-4 4-4 11 0 15 5 4 11 4 16 0l53-53c4-4 4-11 0-15z m267-105l-43 43c-4 4-11 4-15 0l-43-43c-4-4-4-11 0-15 4-4 11-4 15 0l25 24 0-38c0-14-8-29-18-29l-68 0c-6 0-10-5-10-11 0-6 4-11 10-11l68 0c24 0 39 27 39 51l0 38 24-24c5-4 11-4 16 0 4 4 4 11 0 15z"/>
<glyph glyph-name="email" unicode="&#49;" d="M256 248l215 172c-6 4-14 7-23 7l-384 0c-8 0-16-3-22-7z m230 156l-224-178c-3-3-9-3-12 0l-223 179c-4-7-6-13-6-21l0-235c0-23 19-42 43-42l384 0c24 0 43 19 43 42l0 235c0 7-2 14-5 20z"/>
<glyph glyph-name="new-square" unicode="&#50;" d="M256 128l-213 0 0 341 341 0 0-213c0-12 10-21 21-21 12 0 22 9 22 21l0 235c0 11-10 21-22 21l-384 0c-11 0-21-10-21-21l0-384c0-12 10-22 21-22l235 0c12 0 21 10 21 22 0 11-9 21-21 21z m235 0l-64 0 0 64c0 12-10 21-22 21-11 0-21-9-21-21l0-64-64 0c-12 0-21-10-21-21 0-12 9-22 21-22l64 0 0-64c0-11 10-21 21-21 12 0 22 10 22 21l0 64 64 0c11 0 21 10 21 22 0 11-10 21-21 21z"/>
<glyph glyph-name="bubble-chat-3" unicode="&#51;" d="M341 469l-170 0c-94 0-171-76-171-170 0-94 77-171 171-171l21 0 0-75c0-9 12-14 18-7l82 82 49 0c94 0 171 77 171 171 0 94-77 170-171 170z"/>
<glyph glyph-name="close" unicode="&#52;" d="M506 36l-220 220 220 220c8 8 8 21 0 30-9 8-22 8-30 0l-220-220-220 220c-8 8-21 8-30 0-8-9-8-22 0-30l220-220-220-220c-8-8-8-21 0-30 9-8 22-8 30 0l220 220 220-220c8-8 21-8 30 0 8 9 8 22 0 30z"/>
<glyph glyph-name="cog" unicode="&#53;" d="M501 299l-61 0c-4 17-9 35-16 49l43 44c4 4 4 11 0 15l-60 60c-4 4-11 4-15 0l-44-43c-14 7-32 12-49 16l0 61c0 6-5 11-11 11l-64 0c-6 0-11-5-11-11l0-61c-17-4-35-9-49-16l-44 43c-4 4-11 4-15 0l-60-60c-4-4-4-11 0-15l43-44c-7-14-12-32-16-49l-61 0c-6 0-11-5-11-11l0-64c0-6 5-11 11-11l61 0c4-17 9-35 16-49l-43-44c-4-4-4-11 0-15l60-60c4-4 11-4 15 0l44 43c14-7 32-12 49-16l0-61c0-6 5-11 11-11l64 0c6 0 11 5 11 11l0 61c17 4 35 9 49 16l44-43c4-4 11-4 15 0l60 60c4 4 4 11 0 15l-43 44c7 14 12 32 16 49l61 0c6 0 11 5 11 11l0 64c0 6-5 11-11 11z m-245-128c-47 0-85 38-85 85 0 47 38 85 85 85 47 0 85-38 85-85 0-47-38-85-85-85z"/>
<glyph glyph-name="check-1" unicode="&#54;" d="M503 508c-10 7-23 5-30-5l-316-449-121 121c-8 8-21 8-30 0-8-8-8-22 0-30l139-139c4-4 9-6 15-6 7 0 13 3 17 9l331 469c7 10 5 23-5 30z"/>
<glyph glyph-name="split" unicode="&#55;" d="M466 204c-7 10-20 12-30 6-10-7-12-20-6-30l21-31-67 0c-69 0-70 68-123 107 53 39 54 107 123 107 0 0 38 0 67 0l-21-31c-6-10-4-23 6-30 10-6 23-4 30 6l42 64c5 7 5 17 0 24l-42 64c-7 10-20 12-30 6-10-7-12-20-6-30l21-31c-29 0-67 0-67 0-117 0-103-124-188-128-1 0-175 0-175 0-12 0-21-9-21-21 0-12 9-21 21-21 0 0 175 0 177 0 82-6 70-128 186-128l67 0-21-31c-6-10-4-23 6-30 10-6 23-4 30 6l42 64c5 7 5 17 0 24z"/>
<glyph glyph-name="account-files" unicode="&#56;" d="M139 448l90 0 17-37c2-3 6-6 10-6l117 0c6 0 11 5 11 11 0 6-5 11-11 11l-110 0-17 36c-2 4-6 6-10 6l-97 0c-6 0-11-4-11-10 0-6 5-11 11-11z m21 43l91 0 17-37c1-4 5-6 9-6l75 0c6 0 11 5 11 11 0 6-5 10-11 10l-68 0-17 37c-2 4-6 6-10 6l-97 0c-6 0-11-5-11-11 0-6 5-10 11-10z m351-326l-75 128c-2 4-6 6-9 6l-22 0 0 74c0 6-4 11-10 11l-154 0-17 37c-1 3-5 6-9 6l-98 0c-6 0-10-5-10-11l0-117-22 0c-3 0-7-2-9-6l-75-128c-1-1-1-3-1-5l0-149c0-6 5-11 11-11l490 0c6 0 11 5 11 11l0 149c0 2 0 4-1 5z m-265 120c-10 6-16 17-16 30 0 20 16 36 36 36 20 0 37-16 37-36 0-13-7-24-16-30 25-9 44-25 44-61l-129 0c0 36 19 52 44 61z m106-114c-6 0-11-5-11-11l0-21c0-18-14-32-32-32l-96 0c-17 0-32 14-32 32l0 21c0 6-4 11-10 11l-142 0 62 106 16 0 0-74c0-6 4-11 10-11l278 0c6 0 10 5 10 11l0 74 16 0 62-106z"/>
<glyph glyph-name="file-format-xls-1" unicode="&#57;" d="M466 381l-128 128c-2 2-5 3-7 3l-278 0c-6 0-10-5-10-11l0-490c0-6 4-11 10-11l406 0c6 0 10 5 10 11l0 362c0 3-1 6-3 8z m-276-258c4-5 2-12-3-15-5-3-12-1-15 4l-23 38-23-38c-3-5-9-7-14-4-5 3-7 10-4 15l29 48-29 47c-3 6-1 12 4 15 5 3 11 2 14-3l23-39 23 39c3 5 10 6 15 3 5-3 6-9 3-15l-28-47z m109-16l-54 0c-6 0-10 4-10 10l0 107c0 6 4 11 10 11 6 0 11-5 11-11l0-96 43 0c6 0 10-5 10-11 0-6-4-10-10-10z m74 0c-19 0-36 16-37 36 0 6 4 11 10 11 6 1 11-4 12-10 0-9 7-16 15-16 9 0 16 8 16 18 0 12-7 11-19 14-23 5-34 17-34 36 0 21 17 39 37 39 20 0 36-16 37-37 1-6-4-11-10-11-6 0-11 4-11 10 0 9-7 16-16 16-8 0-15-8-15-17 0-10 4-12 15-14 22-5 37-13 37-36 0-22-16-39-37-39z m-53 256l0 128 128-128z"/>
<glyph glyph-name="file-format-ppt-1" unicode="&#33;" d="M165 213l-16 0 0-32 16 0c9 0 16 7 16 16 0 9-7 16-16 16z m107 0l-16 0 0-32 16 0c9 0 16 7 16 16 0 9-7 16-16 16z m194 168l-128 128c-2 2-5 3-7 3l-278 0c-6 0-10-5-10-11l0-490c0-6 4-11 10-11l406 0c6 0 10 5 10 11l0 362c0 3-1 6-3 8z m-301-221l-16 0 0-43c0-6-4-10-10-10-6 0-11 4-11 10l0 107c0 6 5 11 11 11l26 0c21 0 38-17 38-38 0-20-17-37-38-37z m107 0l-16 0 0-43c0-6-5-10-11-10-6 0-10 4-10 10l0 107c0 6 4 11 10 11l27 0c21 0 37-17 37-38 0-20-16-37-37-37z m123 53l-11 0 0-96c0-6-5-10-11-10-6 0-10 4-10 10l0 96-11 0c-6 0-11 5-11 11 0 6 5 11 11 11l43 0c6 0 10-5 10-11 0-6-4-11-10-11z m-75 150l0 128 128-128z"/>
<glyph glyph-name="file-powerpoint-show-1" unicode="&#34;" d="M144 213l-16 0 0-32 16 0c9 0 16 7 16 16 0 9-7 16-16 16z m107 0l-16 0 0-32 16 0c8 0 16 7 16 16 0 9-8 16-16 16z m215 168l-128 128c-2 2-5 3-7 3l-278 0c-6 0-10-5-10-11l0-490c0-6 4-11 10-11l406 0c6 0 10 5 10 11l0 362c0 3-1 6-3 8z m-322-221l-16 0 0-43c0-6-5-10-11-10-6 0-10 4-10 10l0 107c0 6 4 11 10 11l27 0c21 0 37-17 37-38 0-20-16-37-37-37z m107 0l-16 0 0-43c0-6-5-10-11-10-6 0-11 4-11 10l0 107c0 6 5 11 11 11l27 0c20 0 37-17 37-38 0-20-17-37-37-37z m101-53c-20 0-36 16-37 36 0 6 4 11 10 11 6 1 11-4 11-10 1-9 8-16 16-16 9 0 16 8 16 18 0 12-8 11-19 14-23 5-34 17-34 36 0 21 17 39 37 39 20 0 36-16 37-37 0-6-4-11-10-11-6 0-11 4-11 10-1 9-8 16-16 16-9 0-16-8-16-17 0-10 5-12 15-14 23-5 38-13 38-36 0-22-17-39-37-39z m-32 256l0 128 128-128z"/>
<glyph glyph-name="file-rtf-1" unicode="&#35;" d="M165 213l-16 0 0-32 16 0c9 0 16 7 16 16 0 9-7 16-16 16z m301 168l-128 128c-2 2-5 3-7 3l-278 0c-6 0-10-5-10-11l0-490c0-6 4-11 10-11l406 0c6 0 10 5 10 11l0 362c0 3-1 6-3 8z m-264-259c2-5 0-12-5-14-6-3-12-1-15 5l-23 47-10 0 0-43c0-6-4-10-10-10-6 0-11 4-11 10l0 107c0 6 5 11 11 11l26 0c21 0 38-17 38-38 0-15-9-28-22-34z m86 91l-11 0 0-96c0-6-4-10-10-10-6 0-11 4-11 10l0 96-11 0c-6 0-10 5-10 11 0 6 4 11 10 11l43 0c6 0 11-5 11-11 0-6-5-11-11-11z m117 0l-42 0 0-21 21 0c6 0 11-5 11-11 0-6-5-10-11-10l-21 0 0-54c0-6-5-10-11-10-6 0-11 4-11 10l0 107c0 6 5 11 11 11l53 0c6 0 11-5 11-11 0-6-5-11-11-11z m-85 150l0 128 128-128z"/>
<glyph glyph-name="file-keynote-1" unicode="&#36;" d="M466 381l-128 128c-2 2-5 3-7 3l-278 0c-6 0-10-5-10-11l0-490c0-6 4-11 10-11l406 0c6 0 10 5 10 11l0 362c0 3-1 6-3 8z m-267-256c4-4 4-11 0-15-4-4-11-4-15 0l-35 35 0-28c0-6-4-10-10-10-6 0-11 4-11 10l0 107c0 6 5 11 11 11 6 0 10-5 10-11l0-27 35 35c4 4 11 4 15 0 4-5 4-11 0-16l-45-45z m78 67c6 0 11-5 11-11 0-6-5-10-11-10l-21 0 0-43 43 0c6 0 10-5 10-11 0-6-4-10-10-10l-54 0c-6 0-10 4-10 10l0 107c0 6 4 11 10 11l54 0c6 0 10-5 10-11 0-6-4-11-10-11l-43 0 0-21z m132 27l-25-51 0-51c0-6-5-10-11-10-6 0-10 4-10 10l0 51-26 51c-2 5 0 11 5 14 5 3 12 0 14-5l17-34 17 34c3 5 9 8 15 5 5-3 7-9 4-14z m-89 144l0 128 128-128z"/>
<glyph glyph-name="file-notepad-1" unicode="&#37;" d="M466 381l-128 128c-2 2-5 3-7 3l-278 0c-6 0-10-5-10-11l0-490c0-6 4-11 10-11l406 0c6 0 10 5 10 11l0 362c0 3-1 6-3 8z m-285-168l-10 0 0-96c0-6-5-10-11-10-6 0-11 4-11 10l0 96-10 0c-6 0-11 5-11 11 0 6 5 11 11 11l42 0c6 0 11-5 11-11 0-6-5-11-11-11z m116-90c3-5 2-12-3-15-6-3-12-1-15 4l-23 38-23-38c-3-5-9-7-14-4-6 3-7 10-4 15l29 48-29 47c-3 6-2 12 3 15 6 3 12 2 15-3l23-39 23 39c3 5 9 6 14 3 6-3 7-9 4-15l-29-47z m76 90l-10 0 0-96c0-6-5-10-11-10-6 0-11 4-11 10l0 96-10 0c-6 0-11 5-11 11 0 6 5 11 11 11l42 0c6 0 11-5 11-11 0-6-5-11-11-11z m-53 150l0 128 128-128z"/>
<glyph glyph-name="file-format-pdf-1" unicode="&#38;" d="M267 213l-11 0 0-85 11 0c18 0 32 18 32 43 0 24-14 42-32 42z m-102 0l-16 0 0-32 16 0c9 0 16 7 16 16 0 9-7 16-16 16z m301 168l-128 128c-2 2-5 3-7 3l-278 0c-6 0-10-5-10-11l0-490c0-6 4-11 10-11l406 0c6 0 10 5 10 11l0 362c0 3-1 6-3 8z m-301-221l-16 0 0-43c0-6-4-10-10-10-6 0-11 4-11 10l0 107c0 6 5 11 11 11l26 0c21 0 38-17 38-38 0-20-17-37-38-37z m102-53l-22 0c-6 0-10 4-10 10l0 107c0 6 4 11 10 11l22 0c30 0 53-28 53-64 0-37-23-64-53-64z m138 106l-42 0 0-21 21 0c6 0 11-5 11-11 0-6-5-10-11-10l-21 0 0-54c0-6-5-10-11-10-6 0-11 4-11 10l0 107c0 6 5 11 11 11l53 0c6 0 11-5 11-11 0-6-5-11-11-11z m-85 150l0 128 128-128z"/>
<glyph glyph-name="file-format-doc-1" unicode="&#39;" d="M139 213l-11 0 0-85 11 0c18 0 32 18 32 43 0 24-14 42-32 42z m117 0c-12 0-21-3-21-42 0-40 9-43 21-43 12 0 21 3 21 43 0 39-9 42-21 42z m210 168l-128 128c-2 2-5 3-7 3l-278 0c-6 0-10-5-10-11l0-490c0-6 4-11 10-11l406 0c6 0 10 5 10 11l0 362c0 3-1 6-3 8z m-327-274l-22 0c-6 0-10 4-10 10l0 107c0 6 4 11 10 11l22 0c30 0 53-28 53-64 0-37-23-64-53-64z m117 0c-43 0-43 45-43 64 0 19 0 64 43 64 43 0 43-45 43-64 0-19 0-64-43-64z m105 21c6 0 13 1 17 18 1 6 7 10 13 8 5-1 9-7 8-12-6-29-24-35-38-35-41 0-41 43-41 64 0 20 0 64 41 64 14 0 32-6 38-35 1-6-3-12-8-13-6-1-12 3-13 8-4 17-11 18-17 18-11 0-20-3-20-42 0-40 9-43 20-43z m-41 235l0 128 128-128z"/>
<glyph glyph-name="file-format-rar" unicode="&#40;" d="M245 149l22 0-11 38z m-101 64l-16 0 0-32 16 0c9 0 16 8 16 16 0 9-7 16-16 16z m213 0l-16 0 0-32 16 0c9 0 16 8 16 16 0 9-7 16-16 16z m109 168l-128 128c-2 2-5 3-7 3l-278 0c-6 0-10-5-10-11l0-490c0-6 4-11 10-11l406 0c6 0 10 5 10 11l0 362c0 3-1 6-3 8z m-286-259c3-5 1-12-5-14-5-3-11-1-14 5l-24 47-9 0 0-43c0-6-5-10-11-10-6 0-10 4-10 10l0 107c0 6 4 11 10 11l27 0c21 0 37-17 37-38 0-15-9-28-22-34z m111-15c-5-2-12 2-13 7l-4 14-36 0-4-14c-1-5-7-9-13-7-6 2-9 8-7 13l32 107c2 9 18 9 20 0l32-107c2-5-1-11-7-13z m103 15c2-5 0-12-5-14-6-3-12-1-15 5l-23 47-10 0 0-43c0-6-4-10-10-10-6 0-11 4-11 10l0 107c0 6 5 11 11 11l26 0c21 0 38-17 38-38 0-15-9-28-22-34z m-74 241l0 128 128-128z"/>
<glyph glyph-name="file-format-zip-1" unicode="&#41;" d="M466 381l-128 128c-2 2-5 3-7 3l-278 0c-6 0-10-5-10-11l0-490c0-6 4-11 10-11l406 0c6 0 10 5 10 11l0 362c0 3-1 6-3 8z m-263-274l-54 0c-8 0-13 8-9 15l45 91-36 0c-6 0-10 5-10 11 0 6 4 11 10 11l54 0c8 0 13-9 9-16l-45-91 36 0c6 0 10-5 10-11 0-6-4-10-10-10z m74 10c0-6-4-10-10-10-6 0-11 4-11 10l0 107c0 6 5 11 11 11 6 0 10-5 10-11z m80 43l-16 0 0-43c0-6-4-10-10-10-6 0-11 4-11 10l0 107c0 6 5 11 11 11l26 0c21 0 38-17 38-38 0-20-17-37-38-37z m-37 203l0 128 128-128z m37-150l-16 0 0-32 16 0c9 0 16 7 16 16 0 9-7 16-16 16z"/>
<glyph glyph-name="file-format-opentype-1" unicode="&#42;" d="M466 381l-128 128c-2 2-4 3-7 3l-278 0c-6 0-10-5-10-11l0-490c0-6 4-11 10-11l406 0c6 0 10 5 10 11l0 362c0 3-1 6-3 8z m-295-274c-43 0-43 45-43 64 0 19 0 64 43 64 42 0 42-45 42-64 0-19 0-64-42-64z m117 106l-11 0 0-96c0-6-4-10-10-10-6 0-11 4-11 10l0 96-11 0c-6 0-10 5-10 11 0 6 4 11 10 11l43 0c6 0 11-5 11-11 0-6-5-11-11-11z m96 0l-43 0 0-21 22 0c6 0 10-5 10-11 0-6-4-10-10-10l-22 0 0-54c0-6-4-10-10-10-6 0-11 4-11 10l0 107c0 6 5 11 11 11l53 0c6 0 11-5 11-11 0-6-5-11-11-11z m-64 150l0 128 128-128z m-149-150c-12 0-22-3-22-42 0-40 10-43 22-43 11 0 21 3 21 43 0 39-10 42-21 42z"/>
<glyph glyph-name="file-format-3ds-1" unicode="&#43;" d="M267 213l-11 0 0-85 11 0c18 0 32 18 32 43 0 24-14 42-32 42z m199 168l-128 128c-2 2-4 3-7 3l-278 0c-6 0-10-5-10-11l0-490c0-6 4-11 10-11l406 0c6 0 10 5 10 11l0 362c0 3-1 6-3 8z m-269-235c0-18-10-39-37-39-26 0-36 19-37 36 0 6 4 11 10 11 7 1 11-4 11-10 1-16 12-16 16-16 4 0 16 0 16 18 0 4-2 14-18 14-6 0-11 5-11 11 0 6 5 10 11 10 16 0 18 10 18 15 0 17-12 17-16 17-4 0-15 0-16-16 0-6-4-10-11-10-6 0-10 5-10 11 1 18 11 37 37 37 27 0 37-21 37-39 0-9-3-18-10-25 7-7 10-17 10-25z m70-39l-22 0c-6 0-10 4-10 10l0 107c0 6 4 11 10 11l22 0c30 0 53-28 53-64 0-37-23-64-53-64z m106 0c-19 0-36 16-37 36 0 6 4 11 10 11 6 1 11-4 12-10 0-9 7-16 15-16 9 0 16 8 16 18 0 12-7 11-19 14-23 5-34 17-34 36 0 21 17 39 37 39 20 0 36-16 37-37 1-6-4-11-10-11-6 0-11 4-11 10 0 9-7 16-16 16-8 0-15-8-15-17 0-10 4-12 15-14 22-5 37-13 37-36 0-22-16-39-37-39z m-53 256l0 128 128-128z"/>
<glyph glyph-name="file-format-psd-1" unicode="&#44;" d="M352 213l-11 0 0-85 11 0c19 0 32 18 32 43 0 24-13 42-32 42z m114 168l-128 128c-2 2-4 3-7 3l-278 0c-6 0-10-5-10-11l0-490c0-6 4-11 10-11l406 0c6 0 10 5 10 11l0 362c0 3-1 6-3 8z m-322-221l-16 0 0-43c0-6-5-10-11-10-6 0-10 4-10 10l0 107c0 6 4 11 10 11l27 0c21 0 37-17 37-38 0-20-16-37-37-37z m101-53c-19 0-36 16-37 36 0 6 4 11 10 11 6 1 11-4 12-10 0-9 7-16 15-16 9 0 16 8 16 18 0 12-7 11-19 14-23 5-34 17-34 36 0 21 17 39 37 39 20 0 36-16 37-37 1-6-4-11-10-11-5 0-11 4-11 10 0 9-7 16-16 16-8 0-15-8-15-17 0-10 4-12 15-14 22-5 37-13 37-36 0-22-16-39-37-39z m107 0l-21 0c-6 0-11 4-11 10l0 107c0 6 5 11 11 11l21 0c30 0 53-28 53-64 0-37-23-64-53-64z m-32 256l0 128 128-128z m-176-150l-16 0 0-32 16 0c9 0 16 7 16 16 0 9-7 16-16 16z"/>
<glyph glyph-name="file-format-dwg-1" unicode="&#45;" d="M139 213l-11 0 0-85 11 0c18 0 32 18 32 43 0 24-14 42-32 42z m327 168l-128 128c-2 2-4 3-7 3l-278 0c-6 0-10-5-10-11l0-490c0-6 4-11 10-11l406 0c6 0 10 5 10 11l0 362c0 3-1 6-3 8z m-327-274l-22 0c-6 0-10 4-10 10l0 107c0 6 4 11 10 11l22 0c30 0 53-28 53-64 0-37-23-64-53-64z m159 8c-2-10-16-12-20-2l-11 29-12-29c-4-10-18-8-20 2l-21 107c-2 6 2 11 8 12 5 2 11-2 12-8l15-71 8 20c3 8 16 8 20 0l8-20 14 71c1 6 7 10 12 8 6-1 10-6 9-12z m86-8c-43 0-43 45-43 64 0 19 0 64 43 64 23 0 35-9 39-30 2-6-2-11-8-13-5-1-11 3-12 8-3 10-5 13-19 13-12 0-21-3-21-42 0-40 9-43 21-43 5 0 16 0 20 21l-20 0c-6 0-11 5-11 11 0 6 5 11 11 11l32 0c6 0 11-6 11-12-3-43-25-52-43-52z m-64 256l0 128 128-128z"/>
<glyph glyph-name="file-format-truetype-1" unicode="&#46;" d="M466 381l-128 128c-2 2-4 3-7 3l-278 0c-6 0-10-5-10-11l0-490c0-6 4-11 10-11l406 0c6 0 10 5 10 11l0 362c0 3-1 6-3 8z m-306-168l-11 0 0-96c0-6-4-10-10-10-6 0-11 4-11 10l0 96-11 0c-6 0-10 5-10 11 0 6 4 11 10 11l43 0c6 0 11-5 11-11 0-6-5-11-11-11z m107 0l-11 0 0-96c0-6-5-10-11-10-6 0-10 4-10 10l0 96-11 0c-6 0-11 5-11 11 0 6 5 11 11 11l43 0c6 0 10-5 10-11 0-6-4-11-10-11z m117 0l-43 0 0-21 22 0c6 0 10-5 10-11 0-6-4-10-10-10l-22 0 0-54c0-6-4-10-10-10-6 0-11 4-11 10l0 107c0 6 5 11 11 11l53 0c6 0 11-5 11-11 0-6-5-11-11-11z m-64 150l0 128 128-128z"/>
<glyph glyph-name="file-format-dxf-1" unicode="&#47;" d="M139 213l-11 0 0-85 11 0c18 0 32 18 32 43 0 24-14 42-32 42z m327 168l-128 128c-2 2-4 3-7 3l-278 0c-6 0-10-5-10-11l0-490c0-6 4-11 10-11l406 0c6 0 10 5 10 11l0 362c0 3-1 6-3 8z m-327-274l-22 0c-6 0-10 4-10 10l0 107c0 6 4 11 10 11l22 0c30 0 53-28 53-64 0-37-23-64-53-64z m158 16c3-5 2-12-4-15-4-3-11-1-14 4l-23 38-23-38c-3-5-9-7-14-4-6 3-7 10-4 15l29 48-29 48c-3 5-2 11 4 14 5 3 11 2 14-4l23-38 23 38c3 6 9 7 14 4 6-3 7-9 4-14l-29-48z m87 90l-43 0 0-21 22 0c6 0 10-5 10-11 0-6-4-10-10-10l-22 0 0-54c0-6-4-10-10-10-6 0-11 4-11 10l0 107c0 6 5 11 11 11l53 0c6 0 11-5 11-11 0-6-5-11-11-11z m-64 150l0 128 128-128z"/>
<glyph glyph-name="file-format-illustrator-1" unicode="&#58;" d="M466 381l-128 128c-2 2-4 3-7 3l-278 0c-6 0-10-5-10-11l0-490c0-6 4-11 10-11l406 0c6 0 10 5 10 11l0 362c0 3-1 6-3 8z m-196-253c-6-1-12 2-14 8l-4 13-35 0-4-13c-2-6-8-9-13-8-6 2-9 8-8 14l32 106c3 9 18 9 21 0l32-106c2-6-2-12-7-14z m50 11c0-6-5-11-11-11-6 0-10 5-10 11l0 106c0 6 4 11 10 11 6 0 11-5 11-11z m0 224l0 128 128-128z m-97-192l23 0-11 37z"/>
<glyph glyph-name="file-format-indd-1" unicode="&#59;" d="M395 213l-11 0 0-85 11 0c18 0 32 18 32 43 0 24-14 42-32 42z m-107 0l-11 0 0-85 11 0c19 0 32 18 32 43 0 24-13 42-32 42z m178 168l-128 128c-2 2-4 3-7 3l-278 0c-6 0-10-5-10-11l0-490c0-6 4-11 10-11l406 0c6 0 10 5 10 11l0 362c0 3-1 6-3 8z m-381-264c0-6-4-10-10-10-6 0-11 4-11 10l0 107c0 6 5 11 11 11 6 0 10-5 10-11z m128 0c0-4-3-9-7-10-5-1-10 1-12 5l-45 73 0-68c0-6-4-10-10-10-6 0-11 4-11 10l0 107c0 5 3 9 8 10 5 2 9 0 12-5l44-73 0 68c0 6 5 11 11 11 6 0 10-5 10-11z m75-10l-21 0c-6 0-11 4-11 10l0 107c0 6 5 11 11 11l21 0c30 0 53-28 53-64 0-37-23-64-53-64z m107 0l-22 0c-6 0-10 4-10 10l0 107c0 6 4 11 10 11l22 0c30 0 53-28 53-64 0-37-23-64-53-64z m-75 256l0 128 128-128z"/>
<glyph glyph-name="file-format-max-1" unicode="&#60;" d="M266 149l23 0-12 38z m200 232l-128 128c-2 2-4 3-7 3l-278 0c-6 0-10-5-10-11l0-490c0-6 4-11 10-11l406 0c6 0 10 5 10 11l0 362c0 3-1 6-3 8z m-253-264c0-6-4-10-10-10-6 0-11 4-11 10l0 77-24-30c-4-5-12-5-16 0l-24 30 0-77c0-6-5-10-11-10-6 0-10 4-10 10l0 107c0 10 12 15 19 7l34-43 34 43c7 8 19 3 19-7z m99-10c-5-2-11 2-13 7l-4 14-35 0-4-14c-2-5-8-9-14-7-5 2-9 8-7 13l32 107c3 9 18 9 21 0l32-107c1-5-2-11-8-13z m113 16c3-5 2-12-4-15-4-3-11-1-14 4l-23 38-23-38c-3-5-9-7-14-4-6 3-7 10-4 15l29 48-29 48c-3 5-2 11 4 14 5 3 11 2 14-4l23-38 23 38c3 6 9 7 14 4 6-3 7-9 4-14l-29-48z m-105 240l0 128 128-128z"/>
<glyph glyph-name="file-format-tiff-1" unicode="&#61;" d="M424 381l-128 128c-2 2-5 3-8 3l-277 0c-6 0-11-5-11-11l0-490c0-6 5-11 11-11l405 0c6 0 11 5 11 11l0 362c0 3-1 6-3 8z m-349-168l-11 0 0-96c0-6-5-10-11-10-6 0-10 4-10 10l0 96-11 0c-6 0-11 5-11 11 0 6 5 11 11 11l43 0c6 0 10-5 10-11 0-6-4-11-10-11z m96-96c0-6-5-10-11-10-6 0-11 4-11 10l0 107c0 6 5 11 11 11 6 0 11-5 11-11z m117 96l-32 0 0-21 21 0c6 0 11-5 11-11 0-6-5-10-11-10l-21 0 0-54c0-6-5-10-11-10-6 0-10 4-10 10l0 107c0 6 4 11 10 11l43 0c6 0 11-5 11-11 0-6-5-11-11-11z m107 0l-32 0 0-21 21 0c6 0 11-5 11-11 0-6-5-10-11-10l-21 0 0-54c0-6-5-10-11-10-6 0-11 4-11 10l0 107c0 6 5 11 11 11l43 0c6 0 10-5 10-11 0-6-4-11-10-11z m-118 150l0 128 128-128z"/>
<glyph glyph-name="file-format-bmp-1" unicode="&#62;" d="M336 213l-16 0 0-32 16 0c9 0 16 7 16 16 0 9-7 16-16 16z m-229-42l-22 0 0-43 22 0c20 0 21 18 21 21 0 4-1 22-21 22z m10 32c0 2 0 10-10 10l-22 0 0-21 22 0c10 0 10 8 10 11z m307 178l-128 128c-2 2-5 3-8 3l-277 0c-6 0-11-5-11-11l0-490c0-6 5-11 11-11l405 0c6 0 11 5 11 11l0 362c0 3-1 6-3 8z m-317-274l-32 0c-6 0-11 4-11 10l0 107c0 6 5 11 11 11l32 0c19 0 32-13 32-32 0-8-2-14-6-19 11-8 16-22 16-35 0-20-13-42-42-42z m170 10c0-6-4-10-10-10-6 0-11 4-11 10l0 77-24-30c-4-5-12-5-16 0l-24 30 0-77c0-6-5-10-11-10-6 0-10 4-10 10l0 107c0 10 12 14 19 7l34-43 34 43c7 7 19 3 19-7z m59 43l-16 0 0-43c0-6-4-10-10-10 0 0 0 0 0 0-6 0-11 4-11 10l0 107c0 6 4 11 10 11l27 0c21 0 37-17 37-38 0-20-16-37-37-37z m-59 203l0 128 128-128z"/>
<glyph glyph-name="file-format-eps-1" unicode="&#63;" d="M208 213l-16 0 0-32 16 0c9 0 16 7 16 16 0 9-7 16-16 16z m216 168l-128 128c-2 2-5 3-8 3l-277 0c-6 0-11-5-11-11l0-490c0-6 5-11 11-11l405 0c6 0 11 5 11 11l0 362c0 3-1 6-3 8z m-317-189c6 0 10-5 10-11 0-6-4-10-10-10l-22 0 0-43 43 0c6 0 11-5 11-11 0-6-5-10-11-10l-53 0c-6 0-11 4-11 10l0 107c0 6 5 11 11 11l53 0c6 0 11-5 11-11 0-6-5-11-11-11l-43 0 0-21z m101-32l-16 0 0-43c0-6-5-10-11-10-6 0-10 4-10 10l0 107c0 6 4 11 10 11l27 0c21 0 37-17 37-38 0-20-16-37-37-37z m101-53c-19 0-36 16-37 36 0 6 4 11 10 11 6 1 11-4 12-10 0-9 7-16 15-16 9 0 16 8 16 18 0 12-7 11-19 14-23 5-34 17-34 36 0 21 17 39 37 39 20 0 36-16 37-37 1-6-4-11-10-11-5 0-11 4-11 10 0 9-7 16-16 16-8 0-15-8-15-17 0-10 4-12 15-14 22-5 37-13 37-36 0-22-16-39-37-39z m-32 256l0 128 128-128z"/>
<glyph glyph-name="file-format-gif-1" unicode="&#64;" d="M424 381l-128 128c-2 2-5 3-8 3l-277 0c-6 0-11-5-11-11l0-490c0-6 5-11 11-11l405 0c6 0 11 5 11 11l0 362c0 3-1 6-3 8z m-296-274c-43 0-43 45-43 64 0 19 0 64 43 64 23 0 35-9 39-30 2-6-2-11-8-13-5-1-11 3-12 8-3 10-5 13-19 13-12 0-21-3-21-42 0-40 9-43 21-43 5 0 16 0 20 21l-20 0c-6 0-11 5-11 11 0 6 5 11 11 11l32 0c6 0 11-6 11-12-3-43-25-52-43-52z m107 10c0-6-5-10-11-10-6 0-11 4-11 10l0 107c0 6 5 11 11 11 6 0 11-5 11-11z m96 96l-32 0 0-21 21 0c6 0 11-5 11-11 0-6-5-10-11-10l-21 0 0-54c0-6-5-10-11-10-6 0-11 4-11 10l0 107c0 6 5 11 11 11l43 0c6 0 10-5 10-11 0-6-4-11-10-11z m-54 150l0 128 128-128z"/>
<glyph glyph-name="file-format-jpg-1" unicode="&#91;" d="M229 213l-16 0 0-32 16 0c9 0 16 7 16 16 0 9-7 16-16 16z m195 168l-128 128c-2 2-5 3-8 3l-277 0c-6 0-11-5-11-11l0-490c0-6 5-11 11-11l405 0c6 0 11 5 11 11l0 362c0 3-1 6-3 8z m-275-232c0-23-19-42-42-42-24 0-43 19-43 42 0 6 5 11 11 11 6 0 10-5 10-11 0-11 10-21 22-21 11 0 21 10 21 21l0 75c0 6 5 11 11 11 6 0 10-5 10-11z m80 11l-16 0 0-43c0-6-4-10-10-10-6 0-11 4-11 10l0 107c0 6 5 11 11 11l26 0c21 0 38-17 38-38 0-20-17-37-38-37z m91-53c-43 0-43 45-43 64 0 19 0 64 43 64 23 0 35-9 39-30 2-6-2-11-8-13-5-1-11 3-12 8-3 10-5 13-19 13-12 0-21-3-21-42 0-40 9-43 21-43 5 0 16 0 20 21l-20 0c-6 0-11 5-11 11 0 6 5 11 11 11l32 0c6 0 11-6 11-12-3-43-25-52-43-52z m-43 256l0 128 128-128z"/>
<glyph glyph-name="file-format-png-1" unicode="&#93;" d="M101 213l-16 0 0-32 16 0c9 0 16 7 16 16 0 9-7 16-16 16z m323 168l-128 128c-2 2-5 3-8 3l-277 0c-6 0-11-5-11-11l0-490c0-6 5-11 11-11l405 0c6 0 11 5 11 11l0 362c0 3-1 6-3 8z m-323-221l-16 0 0-43c0-6-4-10-10-10-6 0-11 4-11 10l0 107c0 6 5 11 11 11l26 0c21 0 38-17 38-38 0-20-17-37-38-37z m155-43c0-4-3-9-8-10-5-1-9 1-12 5l-44 73 0-68c0-6-5-10-11-10-6 0-10 4-10 10l0 107c0 11 14 15 19 5l45-73 0 68c0 6 4 11 10 11 6 0 11-5 11-11z m64-10c-43 0-43 45-43 64 0 19 0 64 43 64 23 0 35-9 39-30 2-6-2-11-8-13-5-1-11 3-12 8-3 10-5 13-19 13-12 0-21-3-21-42 0-40 9-43 21-43 5 0 16 0 20 21l-20 0c-6 0-11 5-11 11 0 6 5 11 11 11l32 0c6 0 11-6 11-12-3-43-25-52-43-52z m-43 256l0 128 128-128z"/>
<glyph glyph-name="file-format-svg-1" unicode="&#94;" d="M424 381l-128 128c-2 2-5 3-8 3l-277 0c-6 0-11-5-11-11l0-490c0-6 5-11 11-11l405 0c6 0 11 5 11 11l0 362c0 3-1 6-3 8z m-307-274c-19 0-36 16-37 36 0 6 4 11 10 11 6 1 11-4 12-10 0-9 7-16 15-16 9 0 16 8 16 18 0 12-7 11-19 14-23 5-34 17-34 36 0 21 17 39 37 39 20 0 36-16 37-37 1-6-4-11-10-11-6 0-11 4-11 10 0 9-7 16-16 16-8 0-15-8-15-17 0-10 4-12 15-14 22-5 37-13 37-36 0-22-16-39-37-39z m139 114l-32-107c-3-10-18-10-21 0l-32 107c-2 6 2 12 7 13 6 2 12-1 14-7l21-73 22 73c2 6 8 9 13 7 6-1 9-7 8-13z m64-114c-43 0-43 45-43 64 0 19 0 64 43 64 23 0 35-9 39-30 2-6-2-11-8-13-5-1-11 3-12 8-3 10-5 13-19 13-12 0-21-3-21-42 0-40 9-43 21-43 5 0 16 0 20 21l-20 0c-6 0-11 5-11 11 0 6 5 11 11 11l32 0c6 0 11-6 11-12-3-43-25-52-43-52z m-43 256l0 128 128-128z"/>
<glyph glyph-name="file-format-aac-1" unicode="&#95;" d="M138 149l23 0-12 38z m107 0l22 0-11 38z m221 232l-128 128c-2 2-4 3-7 3l-278 0c-6 0-10-5-10-11l0-490c0-6 4-11 10-11l406 0c6 0 10 5 10 11l0 362c0 3-1 6-3 8z m-282-274c-5-2-11 2-13 7l-4 14-35 0-4-14c-2-5-8-9-14-7-5 2-9 8-7 13l32 107c3 9 18 9 21 0l32-107c1-5-2-11-8-13z m107 0c-6-2-12 2-13 7l-4 14-36 0-4-14c-1-5-7-9-13-7-6 2-9 8-7 13l32 107c3 9 18 9 20 0l32-107c2-5-1-11-7-13z m70 21c6 0 13 1 17 18 1 6 7 9 13 8 5-1 9-7 8-12-6-29-24-35-38-35-41 0-41 43-41 64 0 20 0 64 41 64 14 0 32-6 38-35 1-6-3-12-8-13-6-1-12 3-13 8-4 17-11 18-17 18-11 0-20-3-20-42 0-40 9-43 20-43z m-41 235l0 128 128-128z"/>
<glyph glyph-name="file-format-aif-1" unicode="&#96;" d="M466 381l-128 128c-2 2-4 3-7 3l-278 0c-6 0-10-5-10-11l0-490c0-6 4-11 10-11l406 0c6 0 10 5 10 11l0 362c0 3-1 6-3 8z m-260-274c-6-2-12 2-14 7l-4 14-35 0-4-14c-2-5-8-9-13-7-6 2-9 8-8 13l32 107c3 9 18 9 21 0l32-107c2-5-2-11-7-13z m71 10c0-6-4-10-10-10-6 0-11 4-11 10l0 107c0 6 5 11 11 11 6 0 10-5 10-11z m96 96l-32 0 0-21 22 0c6 0 10-5 10-11 0-6-4-10-10-10l-22 0 0-54c0-6-4-10-10-10-6 0-11 4-11 10l0 107c0 6 5 11 11 11l42 0c6 0 11-5 11-11 0-6-5-11-11-11z m-53 150l0 128 128-128z m-161-214l23 0-11 38z"/>
<glyph glyph-name="file-format-midi-1" unicode="&#123;" d="M331 213l-11 0 0-85 11 0c18 0 32 18 32 43 0 24-14 42-32 42z m135 168l-128 128c-2 2-4 3-7 3l-278 0c-6 0-10-5-10-11l0-490c0-6 4-11 10-11l406 0c6 0 10 5 10 11l0 362c0 3-1 6-3 8z m-231-264c0-6-5-10-11-10-6 0-11 4-11 10l0 77-23-30c-4-5-13-5-17 0l-24 30 0-77c0-6-4-10-10-10-6 0-11 4-11 10l0 107c0 10 13 15 19 7l34-43 35 43c6 8 19 3 19-7z m42 0c0-6-4-10-10-10-6 0-11 4-11 10l0 107c0 6 5 11 11 11 6 0 10-5 10-11z m54-10l-22 0c-6 0-10 4-10 10l0 107c0 6 4 11 10 11l22 0c30 0 53-28 53-64 0-37-23-64-53-64z m-11 256l0 128 128-128z"/>
<glyph glyph-name="file-format-mp3-1" unicode="&#124;" d="M272 213l-16 0 0-32 16 0c9 0 16 7 16 16 0 9-7 16-16 16z m194 168l-128 128c-2 2-4 3-7 3l-278 0c-6 0-10-5-10-11l0-490c0-6 4-11 10-11l406 0c6 0 10 5 10 11l0 362c0 3-1 6-3 8z m-253-264c0-6-4-10-10-10-6 0-11 4-11 10l0 77-24-30c-4-5-12-5-16 0l-24 30 0-77c0-6-5-10-11-10-6 0-10 4-10 10l0 107c0 10 12 15 19 7l34-43 34 43c7 8 19 3 19-7z m59 43l-16 0 0-43c0-6-5-10-11-10-6 0-10 4-10 10l0 107c0 6 4 11 10 11l27 0c21 0 37-17 37-38 0-20-16-37-37-37z m138-14c0-18-9-39-37-39-26 0-36 19-37 36 0 6 5 11 10 11 7 1 11-4 12-10 0-16 11-16 15-16 4 0 16 0 16 18 0 4-2 14-18 14-6 0-11 5-11 11 0 6 5 10 11 10 16 0 18 10 18 15 0 17-12 17-16 17-4 0-15 0-15-16-1-6-5-10-12-10-5 0-10 5-10 11 1 18 11 37 37 37 28 0 37-21 37-39 0-9-3-18-10-25 7-7 10-17 10-25z m-90 217l0 128 128-128z"/>
<glyph glyph-name="file-format-wav-1" unicode="&#125;" d="M466 381l-128 128c-2 2-4 3-7 3l-278 0c-6 0-10-5-10-11l0-490c0-6 4-11 10-11l406 0c6 0 10 5 10 11l0 362c0 3-1 6-3 8z m-274-266c-2-10-17-12-21-2l-11 29-11-29c-4-9-19-8-21 2l-21 107c-1 6 2 11 8 12 6 2 12-2 13-8l14-71 8 20c3 8 17 8 20 0l8-20 14 71c1 6 7 10 13 8 6-1 9-6 8-12z m120-8c-5-2-11 2-13 7l-4 14-35 0-4-14c-2-5-8-9-14-7-5 2-9 8-7 13l32 107c3 9 18 9 21 0l32-107c1-5-2-11-8-13z m104 114l-32-107c-2-4-6-7-11-7-4 0-9 3-10 7l-32 107c-2 6 2 12 7 13 6 2 12-1 14-7l21-73 22 73c2 6 8 9 13 7 6-1 9-7 8-13z m-96 142l0 128 128-128z m-54-214l23 0-12 38z"/>
<glyph glyph-name="file-format-avi-1" unicode="&#126;" d="M159 149l23 0-11 38z m307 232l-128 128c-2 2-4 3-7 3l-278 0c-6 0-10-5-10-11l0-490c0-6 4-11 10-11l406 0c6 0 10 5 10 11l0 362c0 3-1 6-3 8z m-260-274c-6-2-12 2-14 7l-4 14-35 0-4-14c-2-5-8-9-13-7-6 2-9 8-8 13l32 107c3 9 18 9 21 0l32-107c2-5-2-11-7-13z m103 114l-32-107c-1-4-6-7-10-7-5 0-9 3-11 7l-32 107c-1 6 2 12 8 13 5 2 11-1 13-7l22-73 21 73c2 6 8 9 14 7 5-1 9-7 7-13z m54-104c0-6-5-10-11-10-6 0-11 4-11 10l0 107c0 6 5 11 11 11 6 0 11-5 11-11z m-43 246l0 128 128-128z"/>
<glyph glyph-name="file-format-flv-1" unicode="&#92;" d="M466 381l-128 128c-2 2-4 3-7 3l-278 0c-6 0-10-5-10-11l0-490c0-6 4-11 10-11l406 0c6 0 10 5 10 11l0 362c0 3-1 6-3 8z m-285-168l-32 0 0-21 22 0c6 0 10-5 10-11 0-6-4-10-10-10l-22 0 0-54c0-6-4-10-10-10-6 0-11 4-11 10l0 107c0 6 5 11 11 11l42 0c6 0 11-5 11-11 0-6-5-11-11-11z m118-106l-54 0c-6 0-10 4-10 10l0 107c0 6 4 11 10 11 6 0 11-5 11-11l0-96 43 0c6 0 10-5 10-11 0-6-4-10-10-10z m95 114l-32-107c-1-4-5-7-10-7-5 0-9 3-10 7l-32 107c-2 6 1 12 7 13 6 2 12-1 13-7l22-73 22 73c1 6 7 9 13 7 6-1 9-7 7-13z m-74 142l0 128 128-128z"/>
<glyph glyph-name="file-format-m4v-1" unicode="&#57344;" d="M277 171l0 18-12-18z m189 210l-128 128c-2 2-4 3-7 3l-278 0c-6 0-10-5-10-11l0-490c0-6 4-11 10-11l406 0c6 0 10 5 10 11l0 362c0 3-1 6-3 8z m-253-264c0-6-4-10-10-10-6 0-11 4-11 10l0 77-24-30c-4-5-12-5-16 0l-24 30 0-77c0-6-5-10-11-10-6 0-10 4-10 10l0 107c0 10 12 15 19 7l34-43 34 43c7 8 19 3 19-7z m96 32l-10 0 0-32c0-6-5-10-11-10-6 0-11 4-11 10l0 32-32 0c-8 0-13 10-9 17l43 64c6 9 20 4 20-6l0-53 10 0c6 0 11-5 11-11 0-6-5-11-11-11z m107 72l-32-107c-2-4-6-7-11-7-4 0-9 3-10 7l-32 107c-2 6 2 12 7 13 6 2 12-1 14-7l21-73 22 73c2 6 8 9 13 7 6-1 9-7 8-13z m-96 142l0 128 128-128z"/>
<glyph glyph-name="file-format-mov-1" unicode="&#57345;" d="M466 381l-128 128c-2 2-4 3-7 3l-278 0c-6 0-10-5-10-11l0-490c0-6 4-11 10-11l406 0c6 0 10 5 10 11l0 362c0 3-1 6-3 8z m-253-264c0-6-4-10-10-10-6 0-11 4-11 10l0 77-24-30c-4-5-12-5-16 0l-24 30 0-77c0-6-5-10-11-10-6 0-10 4-10 10l0 107c0 10 12 15 19 7l34-43 34 43c7 8 19 3 19-7z m64-10c-42 0-42 45-42 64 0 19 0 64 42 64 43 0 43-45 43-64 0-19 0-64-43-64z m139 114l-32-107c-2-4-6-7-11-7-4 0-9 3-10 7l-32 107c-2 6 2 12 7 13 6 2 12-1 14-7l21-73 22 73c2 6 8 9 13 7 6-1 9-7 8-13z m-96 142l0 128 128-128z m-43-150c-11 0-21-3-21-42 0-40 10-43 21-43 12 0 22 3 22 43 0 39-10 42-22 42z"/>
<glyph glyph-name="file-format-mp4-1" unicode="&#57346;" d="M363 171l0 18-12-18z m103 210l-128 128c-2 2-4 3-7 3l-278 0c-6 0-10-5-10-11l0-490c0-6 4-11 10-11l406 0c6 0 10 5 10 11l0 362c0 3-1 6-3 8z m-253-264c0-6-4-10-10-10-6 0-11 4-11 10l0 77-24-30c-4-5-12-5-16 0l-24 30 0-77c0-6-5-10-11-10-6 0-10 4-10 10l0 107c0 10 12 15 19 7l34-43 34 43c7 8 19 3 19-7z m59 43l-16 0 0-43c0-6-5-10-11-10-6 0-10 4-10 10l0 107c0 6 4 11 10 11l27 0c21 0 37-17 37-38 0-20-16-37-37-37z m123-11l-11 0 0-32c0-6-5-10-11-10-6 0-10 4-10 10l0 32-32 0c-9 0-14 10-9 17l42 64c6 9 20 4 20-6l0-53 11 0c6 0 10-5 10-11 0-6-4-11-10-11z m-75 214l0 128 128-128z m-48-150l-16 0 0-32 16 0c9 0 16 7 16 16 0 9-7 16-16 16z"/>
<glyph glyph-name="file-format-mpg-1" unicode="&#57347;" d="M466 381l-128 128c-2 2-4 3-7 3l-278 0c-6 0-10-5-10-11l0-490c0-6 4-11 10-11l406 0c6 0 10 5 10 11l0 362c0 3-1 6-3 8z m-253-264c0-6-4-10-10-10-6 0-11 4-11 10l0 77-24-30c-4-5-12-5-16 0l-24 30 0-77c0-6-5-10-11-10-6 0-10 4-10 10l0 107c0 10 12 15 19 7l34-43 34 43c7 8 19 3 19-7z m59 43l-16 0 0-43c0-6-5-10-11-10-6 0-10 4-10 10l0 107c0 6 4 11 10 11l27 0c21 0 37-17 37-38 0-20-16-37-37-37z m91-53c-43 0-43 45-43 64 0 19 0 64 43 64 22 0 34-9 39-30 1-6-2-11-8-13-6-1-11 3-13 8-2 10-5 13-18 13-12 0-22-3-22-42 0-40 10-43 22-43 5 0 15 0 20 21l-20 0c-6 0-11 5-11 11 0 6 5 11 11 11l32 0c6 0 11-6 10-12-3-43-25-52-42-52z m-43 256l0 128 128-128z m-48-150l-16 0 0-32 16 0c9 0 16 7 16 16 0 9-7 16-16 16z"/>
<glyph glyph-name="file-format-qt-1" unicode="&#57348;" d="M466 381l-128 128c-2 2-4 3-7 3l-278 0c-6 0-10-5-10-11l0-490c0-6 4-11 10-11l406 0c6 0 10 5 10 11l0 362c0 3-1 6-3 8z m-214-282c-4-4-8-5-13-5-3 0-20 4-20 4-7-6-18 1-16 10-32 7-32 45-32 63 0 19 0 64 42 64 43 0 43-45 43-64 0-14 0-41-16-55 11 5 21-9 12-17z m79 114l-11 0 0-96c0-6-5-10-11-10-6 0-10 4-10 10l0 96-11 0c-6 0-11 5-11 11 0 6 5 11 11 11l43 0c6 0 10-5 10-11 0-6-4-11-10-11z m-11 150l0 128 128-128z m-85-192c0 39-10 42-22 42-11 0-21-3-21-42 0-40 10-43 21-43 12 0 22 3 22 43z"/>
<glyph glyph-name="file-format-apk-1" unicode="&#57349;" d="M208 213l-16 0 0-32 16 0c9 0 16 8 16 16 0 9-7 16-16 16z m-113-64l23 0-11 38z m329 232l-128 128c-2 2-5 3-8 3l-277 0c-6 0-11-5-11-11l0-490c0-6 5-11 11-11l405 0c6 0 11 5 11 11l0 362c0 3-1 6-3 8z m-282-274c-6-2-12 2-14 7l-4 14-35 0-4-14c-2-5-8-9-13-7-6 2-9 8-8 13l32 107c3 9 18 9 21 0l32-107c2-5-2-11-7-13z m66 53l-16 0 0-43c0-6-5-10-11-10-6 0-10 4-10 10l0 107c0 6 4 11 10 11l27 0c21 0 37-17 37-38 0-20-16-37-37-37z m141-35c4-4 4-11 0-15-4-4-11-4-15 0l-35 35 0-28c0-6-5-10-11-10-6 0-11 4-11 10l0 107c0 6 5 11 11 11 6 0 11-5 11-11l0-28 35 36c4 4 11 4 15 0 4-5 4-11 0-16l-46-45z m-72 238l0 128 128-128z"/>
<glyph glyph-name="file-format-app-1" unicode="&#57350;" d="M315 213l-16 0 0-32 16 0c8 0 16 8 16 16 0 9-8 16-16 16z m109 168l-128 128c-2 2-5 3-8 3l-277 0c-6 0-11-5-11-11l0-490c0-6 5-11 11-11l405 0c6 0 11 5 11 11l0 362c0 3-1 6-3 8z m-282-274c-6-2-12 2-14 7l-4 14-35 0-4-14c-2-5-8-9-13-7-6 2-9 8-8 13l32 107c3 9 18 9 21 0l32-107c2-5-2-11-7-13z m66 53l-16 0 0-43c0-6-5-10-11-10-6 0-10 4-10 10l0 107c0 6 4 11 10 11l27 0c21 0 37-17 37-38 0-20-16-37-37-37z m107 0l-16 0 0-43c0-6-5-10-11-10-6 0-11 4-11 10l0 107c0 6 5 11 11 11l27 0c20 0 37-17 37-38 0-20-17-37-37-37z m-38 203l0 128 128-128z m-69-150l-16 0 0-32 16 0c9 0 16 8 16 16 0 9-7 16-16 16z m-113-64l23 0-11 38z"/>
<glyph glyph-name="file-format-asp-1" unicode="&#57351;" d="M95 149l23 0-11 38z m220 64l-16 0 0-32 16 0c8 0 16 8 16 16 0 9-8 16-16 16z m109 168l-128 128c-2 2-5 3-8 3l-277 0c-6 0-11-5-11-11l0-490c0-6 5-11 11-11l405 0c6 0 11 5 11 11l0 362c0 3-1 6-3 8z m-282-274c-6-2-12 2-14 7l-4 14-35 0-4-14c-2-5-8-9-13-7-6 2-9 8-8 13l32 107c3 9 18 9 21 0l32-107c2-5-2-11-7-13z m61 0c-20 0-36 16-37 36-1 6 4 11 10 11 6 1 11-4 11-10 0-9 7-16 16-16 8 0 15 8 15 18 0 12-7 11-18 14-24 5-34 17-34 36 0 21 16 39 37 39 19 0 36-16 37-37 0-6-4-11-10-11-6-1-11 4-12 10 0 9-7 16-15 16-9 0-16-8-16-17 0-10 5-12 15-14 22-4 38-13 38-36 0-22-17-39-37-39z m112 53l-16 0 0-43c0-6-5-10-11-10-6 0-11 4-11 10l0 107c0 6 5 11 11 11l27 0c20 0 37-17 37-38 0-20-17-37-37-37z m-38 203l0 128 128-128z"/>
<glyph glyph-name="file-format-bin-1" unicode="&#57352;" d="M139 203c0 2 0 10-11 10l-21 0 0-21 21 0c11 0 11 8 11 11z m-11-32l-21 0 0-43 21 0c20 0 21 18 21 21 0 4-1 22-21 22z m296 210l-128 128c-2 2-5 3-8 3l-277 0c-6 0-11-5-11-11l0-490c0-6 5-11 11-11l405 0c6 0 11 5 11 11l0 362c0 3-1 6-3 8z m-296-274l-32 0c-6 0-11 4-11 10l0 107c0 6 5 11 11 11l32 0c19 0 32-13 32-32 0-8-2-14-5-19 11-8 16-22 16-35 0-20-14-42-43-42z m85 10c0-6-4-10-10-10-6 0-11 4-11 10l0 107c0 6 5 11 11 11 6 0 10-5 10-11z m128 0c0-10-14-14-19-5l-45 73 0-68c0-6-4-10-10-10-6 0-11 4-11 10l0 107c0 11 14 15 20 5l44-73 0 68c0 6 5 11 11 11 6 0 10-5 10-11z m-64 246l0 128 128-128z"/>
<glyph glyph-name="file-format-c-plus-plus-1" unicode="&#57353;" d="M424 381l-128 128c-2 2-5 3-8 3l-277 0c-6 0-11-5-11-11l0-490c0-6 5-11 11-11l405 0c6 0 11 5 11 11l0 362c0 3-1 6-3 8z m-341-253c7 0 14 1 18 18 1 6 7 9 12 8 6-1 10-7 9-12-7-29-25-35-39-35-40 0-40 43-40 64 0 20 0 64 40 64 14 0 32-6 39-35 1-6-3-12-9-13-5-1-11 3-12 8-4 17-11 18-18 18-11 0-19-3-19-42 0-40 8-43 19-43z m162 43l-32 0 0-32c0-6-4-11-10-11-6 0-11 5-11 11l0 32-32 0c-6 0-11 4-11 10 0 6 5 11 11 11l32 0 0 32c0 6 5 11 11 11 6 0 10-5 10-11l0-32 32 0c6 0 11-5 11-11 0-6-5-10-11-10z m128 0l-32 0 0-32c0-6-4-11-10-11-6 0-11 5-11 11l0 32-32 0c-6 0-11 4-11 10 0 6 5 11 11 11l32 0 0 32c0 6 5 11 11 11 6 0 10-5 10-11l0-32 32 0c6 0 11-5 11-11 0-6-5-10-11-10z m-96 192l0 128 128-128z"/>
<glyph glyph-name="file-format-css-1" unicode="&#57354;" d="M424 381l-128 128c-2 2-5 3-8 3l-277 0c-6 0-11-5-11-11l0-490c0-6 5-11 11-11l405 0c6 0 11 5 11 11l0 362c0 3-1 6-3 8z m-319-253c6 0 13 1 17 18 1 6 7 9 13 8 5-1 9-7 8-12-6-29-24-35-38-35-41 0-41 43-41 64 0 20 0 64 41 64 14 0 32-6 38-35 1-6-3-12-8-13-6-1-12 3-13 8-4 17-11 18-17 18-11 0-20-3-20-42 0-40 9-43 20-43z m98-21c-20 0-36 16-37 36-1 6 4 11 10 11 5 1 11-4 11-10 0-9 7-16 16-16 8 0 15 8 15 18 0 12-7 11-18 14-24 5-34 17-34 36 0 21 16 39 37 39 19 0 36-16 37-37 0-6-4-11-10-11-6-1-11 4-12 10 0 9-7 16-15 16-9 0-16-8-16-17 0-10 5-12 15-14 22-4 38-13 38-36 0-22-17-39-37-39z m106 0c-19 0-36 16-37 36 0 6 4 11 10 11 6 1 11-4 12-10 0-9 7-16 15-16 9 0 16 8 16 18 0 12-7 11-19 14-23 5-34 17-34 36 0 21 17 39 37 39 20 0 36-16 37-37 1-6-4-11-10-11-5-1-11 4-11 10 0 9-7 16-16 16-8 0-15-8-15-17 0-10 4-12 15-14 22-4 37-13 37-36 0-22-16-39-37-39z m-32 256l0 128 128-128z"/>
<glyph glyph-name="file-format-csv-1" unicode="&#57355;" d="M424 381l-128 128c-2 2-5 3-8 3l-277 0c-6 0-11-5-11-11l0-490c0-6 5-11 11-11l405 0c6 0 11 5 11 11l0 362c0 3-1 6-3 8z m-319-253c6 0 13 1 17 18 1 6 7 9 13 8 5-1 9-7 8-12-6-29-24-35-38-35-41 0-41 43-41 64 0 20 0 64 41 64 14 0 32-6 38-35 1-6-3-12-8-13-6-1-12 3-13 8-4 17-11 18-17 18-11 0-20-3-20-42 0-40 9-43 20-43z m98-21c-20 0-36 16-37 36-1 6 4 11 10 11 5 1 11-4 11-10 0-9 7-16 16-16 8 0 15 8 15 18 0 12-7 11-18 14-24 5-34 17-34 36 0 21 16 39 37 39 19 0 36-16 37-37 0-6-4-11-10-11-6-1-11 4-12 10 0 9-7 16-15 16-9 0-16-8-16-17 0-10 5-12 15-14 22-4 38-13 38-36 0-22-17-39-37-39z m149 114l-32-107c-2-4-6-7-11-7-4 0-9 3-10 7l-32 107c-2 6 2 12 7 13 6 2 12-1 14-7l21-73 22 73c2 6 8 9 13 7 6-1 9-7 8-13z m-75 142l0 128 128-128z"/>
<glyph glyph-name="file-format-dat-1" unicode="&#57356;" d="M202 149l23 0-12 38z m-106 64l-11 0 0-85 11 0c19 0 32 18 32 43 0 24-13 42-32 42z m328 168l-128 128c-2 2-5 3-8 3l-277 0c-6 0-11-5-11-11l0-490c0-6 5-11 11-11l405 0c6 0 11 5 11 11l0 362c0 3-1 6-3 8z m-328-274l-21 0c-6 0-11 4-11 10l0 107c0 6 5 11 11 11l21 0c30 0 53-28 53-64 0-37-23-64-53-64z m152 0c-5-2-11 2-13 7l-4 14-35 0-4-14c-2-5-8-9-14-7-5 2-9 8-7 13l32 107c3 9 18 9 21 0l32-107c1-5-2-11-8-13z m83 106l-11 0 0-96c0-6-5-10-11-10-6 0-10 4-10 10l0 96-11 0c-6 0-11 5-11 11 0 6 5 11 11 11l43 0c6 0 10-5 10-11 0-6-4-11-10-11z m-54 150l0 128 128-128z"/>
<glyph glyph-name="file-format-dmg-1" unicode="&#57357;" d="M424 381l-128 128c-2 2-5 3-8 3l-277 0c-6 0-11-5-11-11l0-490c0-6 5-11 11-11l405 0c6 0 11 5 11 11l0 362c0 3-1 6-3 8z m-328-274l-21 0c-6 0-11 4-11 10l0 107c0 6 5 11 11 11l21 0c30 0 53-28 53-64 0-37-23-64-53-64z m181 10c0-6-4-10-10-10-6 0-11 4-11 10l0 77-24-30c-4-5-12-5-16 0l-24 30 0-77c0-6-5-10-11-10-6 0-10 4-10 10l0 107c0 10 12 15 19 7l34-43 34 43c7 8 19 3 19-7z m64-10c-42 0-42 45-42 64 0 19 0 64 42 64 23 0 35-9 40-30 1-6-3-11-8-13-6-1-12 3-13 8-2 10-5 13-19 13-11 0-21-3-21-42 0-40 10-43 21-43 5 0 16 0 20 21l-20 0c-6 0-10 5-10 11 0 6 4 11 10 11l32 0c7 0 11-6 11-12-3-43-25-52-43-52z m-64 256l0 128 128-128z m-181-150l-11 0 0-85 11 0c19 0 32 18 32 43 0 24-13 42-32 42z"/>
<glyph glyph-name="file-format-exe-1" unicode="&#57358;" d="M424 381l-128 128c-2 2-5 3-8 3l-277 0c-6 0-11-5-11-11l0-490c0-6 5-11 11-11l405 0c6 0 11 5 11 11l0 362c0 3-1 6-3 8z m-317-189c6 0 10-5 10-11 0-6-4-10-10-10l-22 0 0-43 43 0c6 0 11-5 11-11 0-6-5-10-11-10l-53 0c-6 0-11 4-11 10l0 107c0 6 5 11 11 11l53 0c6 0 11-5 11-11 0-6-5-11-11-11l-43 0 0-21z m147-69c4-5 2-12-3-15-5-3-12-1-15 4l-23 38-23-38c-3-5-9-7-14-4-5 3-7 10-4 15l29 48-29 48c-3 5-1 11 4 14 5 3 11 2 14-4l23-38 23 38c3 6 10 7 15 4 5-3 7-9 3-14l-28-48z m66 69c6 0 11-5 11-11 0-6-5-10-11-10l-21 0 0-43 42 0c6 0 11-5 11-11 0-6-5-10-11-10l-53 0c-6 0-11 4-11 10l0 107c0 6 5 11 11 11l53 0c6 0 11-5 11-11 0-6-5-11-11-11l-42 0 0-21z m-43 171l0 128 128-128z"/>
<glyph glyph-name="file-format-hqx-1" unicode="&#57359;" d="M424 381l-128 128c-2 2-5 3-8 3l-277 0c-6 0-11-5-11-11l0-490c0-6 5-11 11-11l405 0c6 0 11 5 11 11l0 362c0 3-1 6-3 8z m-275-264c0-6-4-10-10-10-6 0-11 4-11 10l0 32-43 0 0-32c0-6-4-10-10-10-6 0-11 4-11 10l0 107c0 6 5 11 11 11 6 0 10-5 10-11l0-53 43 0 0 53c0 6 5 11 11 11 6 0 10-5 10-11z m103-18c-4-4-8-5-13-5-3 0-19 4-20 4-7-6-18 1-16 10-32 7-32 45-32 63 0 19 0 64 42 64 43 0 43-45 43-64 0-14 0-41-16-55 11 5 21-9 12-17z m109 24c3-5 2-12-4-15-4-3-11-1-14 4l-23 38-23-38c-3-5-10-7-14-4-6 3-7 10-4 15l29 48-29 48c-3 5-2 11 4 14 5 3 11 2 14-4l23-38 23 38c3 6 9 7 14 4 6-3 7-9 4-14l-29-48z m-84 240l0 128 128-128z m-42-192c0 39-10 42-22 42-11 0-21-3-21-42 0-40 10-43 21-43 12 0 22 3 22 43z"/>
<glyph glyph-name="file-format-html-1" unicode="&#57360;" d="M424 381l-128 128c-2 2-5 3-8 3l-277 0c-6 0-11-5-11-11l0-490c0-6 5-11 11-11l405 0c6 0 11 5 11 11l0 362c0 3-1 6-3 8z m-147 110l128-128-128 0z m-170-374c0-6-5-10-11-10-6 0-11 4-11 10l0 32-42 0 0-32c0-6-5-10-11-10-6 0-11 4-11 10l0 107c0 6 5 11 11 11 6 0 11-5 11-11l0-53 42 0 0 53c0 6 5 11 11 11 6 0 11-5 11-11z m74 96l-10 0 0-96c0-6-5-10-11-10-6 0-11 4-11 10l0 96-10 0c-6 0-11 5-11 11 0 6 5 11 11 11l42 0c6 0 11-5 11-11 0-6-5-11-11-11z m139-96c0-6-5-10-11-10-6 0-10 4-10 10l0 77-24-30c-4-5-13-5-17 0l-23 30 0-77c0-6-5-10-11-10-6 0-11 4-11 10l0 107c0 10 13 15 19 7l35-43 34 43c6 8 19 3 19-7z m85-10l-53 0c-6 0-11 4-11 10l0 107c0 6 5 11 11 11 6 0 11-5 11-11l0-96 42 0c6 0 11-5 11-11 0-6-5-10-11-10z"/>
<glyph glyph-name="file-format-iso-1" unicode="&#57361;" d="M299 213c-12 0-22-3-22-42 0-40 10-43 22-43 11 0 21 3 21 43 0 39-10 42-21 42z m125 168l-128 128c-2 2-5 3-8 3l-277 0c-6 0-11-5-11-11l0-490c0-6 5-11 11-11l405 0c6 0 11 5 11 11l0 362c0 3-1 6-3 8z m-317-264c0-6-5-10-11-10-6 0-11 4-11 10l0 107c0 6 5 11 11 11 6 0 11-5 11-11z m74-10c-19 0-36 16-37 36 0 6 4 11 10 11 6 1 11-4 12-10 0-9 7-16 15-16 9 0 16 8 16 18 0 12-7 11-19 14-23 5-34 17-34 36 0 21 17 39 37 39 20 0 36-16 37-37 1-6-4-11-10-11-5-1-11 4-11 10 0 9-7 16-16 16-8 0-15-8-15-17 0-10 4-12 15-14 22-4 37-13 37-36 0-22-16-39-37-39z m118 0c-43 0-43 45-43 64 0 19 0 64 43 64 42 0 42-45 42-64 0-19 0-64-42-64z m-22 256l0 128 128-128z"/>
<glyph glyph-name="file-format-java-1" unicode="&#57362;" d="M351 149l23 0-11 38z m73 232l-128 128c-2 2-5 3-8 3l-277 0c-6 0-11-5-11-11l0-490c0-6 5-11 11-11l405 0c6 0 11 5 11 11l0 362c0 3-1 6-3 8z m-317-232c0-23-19-42-43-42-24 0-43 19-43 42 0 6 5 11 11 11 6 0 11-5 11-11 0-11 9-21 21-21 12 0 21 10 21 21l0 75c0 6 5 11 11 11 6 0 11-5 11-11z m99-42c-6-2-12 2-14 7l-4 14-35 0-4-14c-2-5-8-9-13-7-6 2-9 8-8 13l32 107c3 9 18 9 21 0l32-107c2-5-2-11-7-13z m103 114l-32-107c-1-4-6-7-10-7-5 0-9 3-11 7l-32 107c-1 6 2 12 8 13 5 2 11-1 13-7l22-73 21 73c2 6 8 9 14 7 5-1 9-7 7-13z m89-114c-6-2-12 2-14 7l-4 14-35 0-4-14c-2-5-8-9-13-7-6 2-9 8-8 13l32 107c3 9 18 9 21 0l32-107c2-5-2-11-7-13z m-121 256l0 128 128-128z m-118-214l23 0-11 38z"/>
<glyph glyph-name="file-format-javascript-1" unicode="&#57363;" d="M424 381l-128 128c-2 2-5 3-8 3l-277 0c-6 0-11-5-11-11l0-490c0-6 5-11 11-11l405 0c6 0 11 5 11 11l0 362c0 3-1 6-3 8z m-232-232c0-23-19-42-43-42-23 0-42 19-42 42 0 6 4 11 10 11 6 0 11-5 11-11 0-11 10-21 21-21 12 0 22 10 22 21l0 75c0 6 4 11 10 11 6 0 11-5 11-11z m75-42c-20 0-36 16-37 36-1 6 4 11 10 11 5 1 11-4 11-10 0-9 7-16 16-16 8 0 15 8 15 18 0 12-7 11-18 14-24 5-34 17-34 36 0 21 16 39 37 39 19 0 36-16 37-37 0-6-4-11-10-11-6-1-11 4-12 10 0 9-7 16-15 16-9 0-16-8-16-17 0-10 5-12 15-14 22-4 38-13 38-36 0-22-17-39-37-39z m10 256l0 128 128-128z"/>
<glyph glyph-name="file-format-php-1" unicode="&#57364;" d="M101 213l-16 0 0-32 16 0c9 0 16 8 16 16 0 9-7 16-16 16z m214 0l-16 0 0-32 16 0c8 0 16 8 16 16 0 9-8 16-16 16z m109 168l-128 128c-2 2-5 3-8 3l-277 0c-6 0-11-5-11-11l0-490c0-6 5-11 11-11l405 0c6 0 11 5 11 11l0 362c0 3-1 6-3 8z m-323-221l-16 0 0-43c0-6-4-10-10-10-6 0-11 4-11 10l0 107c0 6 5 11 11 11l26 0c21 0 38-17 38-38 0-20-17-37-38-37z m155-43c0-6-5-10-11-10-6 0-10 4-10 10l0 32-43 0 0-32c0-6-5-10-11-10-6 0-10 4-10 10l0 107c0 6 4 11 10 11 6 0 11-5 11-11l0-53 43 0 0 53c0 6 4 11 10 11 6 0 11-5 11-11z m59 43l-16 0 0-43c0-6-5-10-11-10-6 0-11 4-11 10l0 107c0 6 5 11 11 11l27 0c20 0 37-17 37-38 0-20-17-37-37-37z m-38 203l0 128 128-128z"/>
<glyph glyph-name="file-format-pl-1" unicode="&#57365;" d="M424 381l-128 128c-2 2-5 3-8 3l-277 0c-6 0-11-5-11-11l0-490c0-6 5-11 11-11l405 0c6 0 11 5 11 11l0 362c0 3-1 6-3 8z m-259-221l-16 0 0-43c0-6-4-10-10-10-6 0-11 4-11 10l0 107c0 6 5 11 11 11l26 0c21 0 38-17 38-38 0-20-17-37-38-37z m134-53l-54 0c-6 0-10 4-10 10l0 107c0 6 4 11 10 11 6 0 11-5 11-11l0-96 43 0c6 0 10-5 10-11 0-6-4-10-10-10z m-22 256l0 128 128-128z m-112-150l-16 0 0-32 16 0c9 0 16 8 16 16 0 9-7 16-16 16z"/>
<glyph glyph-name="file-format-py-1" unicode="&#57366;" d="M165 213l-16 0 0-32 16 0c9 0 16 8 16 16 0 9-7 16-16 16z m259 168l-128 128c-2 2-5 3-8 3l-277 0c-6 0-11-5-11-11l0-490c0-6 5-11 11-11l405 0c6 0 11 5 11 11l0 362c0 3-1 6-3 8z m-259-221l-16 0 0-43c0-6-4-10-10-10-6 0-11 4-11 10l0 107c0 6 5 11 11 11l26 0c21 0 38-17 38-38 0-20-17-37-38-37z m138 59l-26-51 0-51c0-6-4-10-10-10-6 0-11 4-11 10l0 51-25 51c-3 5-1 11 4 14 6 3 12 0 15-5l17-34 17 34c2 5 9 8 14 5 5-3 7-9 5-14z m-26 144l0 128 128-128z"/>
<glyph glyph-name="file-format-rb-1" unicode="&#57367;" d="M288 203c0 2 0 10-11 10l-21 0 0-21 21 0c11 0 11 8 11 11z m-123 10l-16 0 0-32 16 0c9 0 16 8 16 16 0 9-7 16-16 16z m259 168l-128 128c-2 2-5 3-8 3l-277 0c-6 0-11-5-11-11l0-490c0-6 5-11 11-11l405 0c6 0 11 5 11 11l0 362c0 3-1 6-3 8z m-222-259c2-5 0-12-5-14-6-3-12-1-15 5l-23 47-10 0 0-43c0-6-4-10-10-10-6 0-11 4-11 10l0 107c0 6 5 11 11 11l26 0c21 0 38-17 38-38 0-15-9-28-22-34z m75-15l-32 0c-6 0-10 4-10 10l0 107c0 6 4 11 10 11l32 0c19 0 32-13 32-32 0-8-2-14-5-19 11-8 16-22 16-35 0-20-13-42-43-42z m0 256l0 128 128-128z m0-192l-21 0 0-43 21 0c21 0 22 18 22 21 0 4-1 22-22 22z"/>
<glyph glyph-name="file-format-sql-1" unicode="&#57368;" d="M235 171c0 39-10 42-22 42-11 0-21-3-21-42 0-40 10-43 21-43 12 0 22 3 22 43z m189 210l-128 128c-2 2-5 3-8 3l-277 0c-6 0-11-5-11-11l0-490c0-6 5-11 11-11l405 0c6 0 11 5 11 11l0 362c0 3-1 6-3 8z m-307-274c-19 0-36 16-37 36 0 6 4 11 10 11 6 1 11-4 12-10 0-9 7-16 15-16 9 0 16 8 16 18 0 12-7 11-19 14-23 5-34 17-34 36 0 21 17 39 37 39 20 0 36-16 37-37 1-6-4-11-10-11-6-1-11 4-11 10 0 9-7 16-16 16-8 0-15-8-15-17 0-10 4-12 15-14 22-4 37-13 37-36 0-22-16-39-37-39z m135-8c-4-4-8-5-13-5-3 0-19 4-20 4-7-6-18 1-16 10-32 7-32 45-32 63 0 19 0 64 42 64 43 0 43-45 43-64 0-14 0-41-16-55 11 5 21-9 12-17z m89 8l-53 0c-6 0-11 4-11 10l0 107c0 6 5 11 11 11 6 0 11-5 11-11l0-96 42 0c6 0 11-5 11-11 0-6-5-10-11-10z m-64 256l0 128 128-128z"/>
<glyph glyph-name="file-format-xml-1" unicode="&#57369;" d="M424 381l-128 128c-2 2-5 3-8 3l-277 0c-6 0-11-5-11-11l0-490c0-6 5-11 11-11l405 0c6 0 11 5 11 11l0 362c0 3-1 6-3 8z m-276-258c3-5 1-12-4-15-5-3-11-1-14 4l-23 38-23-38c-3-5-10-7-15-4-5 3-7 10-3 15l28 48-28 48c-4 5-2 11 3 14 5 3 12 2 15-4l23-38 23 38c3 6 9 7 14 4 5-3 7-9 4-14l-29-48z m129-6c0-6-4-10-10-10-6 0-11 4-11 10l0 77-24-30c-4-5-12-5-16 0l-24 30 0-77c0-6-5-10-11-10-6 0-10 4-10 10l0 107c0 10 12 15 19 7l34-43 34 43c7 8 19 3 19-7z m86-10l-54 0c-6 0-10 4-10 10l0 107c0 6 4 11 10 11 6 0 11-5 11-11l0-96 43 0c6 0 10-5 10-11 0-6-4-10-10-10z m-86 256l0 128 128-128z"/>
<glyph glyph-name="file-format-ym-1" unicode="&#57370;" d="M424 381l-128 128c-2 2-5 3-8 3l-277 0c-6 0-11-5-11-11l0-490c0-6 5-11 11-11l405 0c6 0 11 5 11 11l0 362c0 3-1 6-3 8z m-228-162l-25-51 0-51c0-6-5-10-11-10-6 0-11 4-11 10l0 51-25 51c-3 5-1 11 5 14 5 3 11 0 14-5l17-34 17 34c3 5 9 8 14 5 6-3 8-9 5-14z m124-102c0-6-5-10-11-10-6 0-10 4-10 10l0 77-24-30c-4-5-13-5-17 0l-23 30 0-77c0-6-5-10-11-10-6 0-11 4-11 10l0 107c0 10 13 15 19 7l35-43 34 43c6 8 19 3 19-7z m-43 246l0 128 128-128z"/>
<glyph glyph-name="file-terminal" unicode="&#57371;" d="M424 381l-128 128c-2 2-5 3-8 3l-277 0c-6 0-11-5-11-11l0-490c0-6 5-11 11-11l405 0c6 0 11 5 11 11l0 362c0 3-1 6-3 8z m-225-208l-85-74c-2-2-5-3-7-3-3 0-6 1-8 4-4 4-4 11 1 15l76 66-76 67c-5 4-5 11-1 15 4 4 10 5 15 1l85-75c2-2 4-5 4-8 0-3-2-6-4-8z m121-2l-85 0c-6 0-11 4-11 10 0 6 5 11 11 11l85 0c6 0 11-5 11-11 0-6-5-10-11-10z m-43 192l0 128 128-128z"/>
<glyph glyph-name="file-code-1" unicode="&#57372;" d="M381 381l-128 128c-2 2-5 3-8 3l-234 0c-6 0-11-5-11-11l0-490c0-6 5-11 11-11l362 0c6 0 11 5 11 11l0 362c0 3-1 6-3 8z m-235-256c4-4 4-11 0-15-2-2-5-3-7-3-3 0-6 1-8 3l-85 85c-4 4-4 11 0 15l85 86c4 4 11 4 15 0 4-5 4-11 0-16l-78-77z m192 70l-85-85c-2-2-5-3-8-3-2 0-5 1-7 3-4 4-4 11 0 15l78 78-78 77c-4 5-4 11 0 16 4 4 11 4 15 0l85-86c4-4 4-11 0-15z m-103 168l0 128 128-128z"/>
<glyph glyph-name="file-copyright" unicode="&#57373;" d="M424 381l-128 128c-2 2-5 3-8 3l-277 0c-6 0-11-5-11-11l0-490c0-6 5-11 11-11l405 0c6 0 11 5 11 11l0 362c0 3-1 6-3 8z m-211-317c-70 0-128 57-128 128 0 71 58 128 128 128 71 0 128-57 128-128 0-71-57-128-128-128z m64 299l0 128 128-128z m-64-235c-19 0-42 11-42 64 0 53 23 64 42 64 30 0 38-21 42-32 2-6 0-12-6-14-5-2-12 0-14 6-4 13-8 19-22 19-5 0-21 0-21-43 0-43 16-43 21-43 14 0 17 6 22 19 2 5 9 8 14 6 6-2 8-8 6-14-4-11-12-32-42-32z"/>
<glyph glyph-name="file-creative-commons" unicode="&#57374;" d="M177 220c7 0 11-3 14-10 2-5 8-8 13-6 6 2 9 8 6 14-5 15-17 23-33 23-12 0-38-4-38-49 0-45 26-49 38-49 16 0 28 8 33 23 3 5 0 12-6 14-5 2-11-1-13-6-3-7-7-10-14-10-5 0-17 0-17 28 0 28 12 28 17 28z m76 0c8 0 12-3 14-10 2-5 9-8 14-6 6 2 8 8 6 14-5 15-17 23-34 23-11 0-38-4-38-49 0-45 27-49 38-49 16 0 28 8 34 23 2 5 0 12-6 14-5 2-12-1-14-6-2-7-6-10-14-10-5 0-16 0-16 28 0 28 11 28 16 28z m171 161l-128 128c-2 2-5 3-8 3l-277 0c-6 0-11-5-11-11l0-490c0-6 5-11 11-11l405 0c6 0 11 5 11 11l0 362c0 3-1 6-3 8z m-211-317c-70 0-128 57-128 128 0 71 58 128 128 128 71 0 128-57 128-128 0-71-57-128-128-128z m64 299l0 128 128-128z"/>
<glyph glyph-name="file-registered-trademark" unicode="&#57375;" d="M424 381l-128 128c-2 2-5 3-8 3l-277 0c-6 0-11-5-11-11l0-490c0-6 5-11 11-11l405 0c6 0 11 5 11 11l0 362c0 3-1 6-3 8z m-211-317c-70 0-128 57-128 128 0 71 58 128 128 128 71 0 128-57 128-128 0-71-57-128-128-128z m64 299l0 128 128-128z m-54-179c14 5 22 17 22 35 0 23-14 37-38 37l-26 0c-6 0-10-5-10-11l0-106c0-6 4-11 10-11 6 0 11 5 11 11l0 42 8 0 25-47c3-5 9-8 15-5 5 3 7 9 4 15z m-31 51l15 0c14 0 17-6 17-16 0-11-3-16-17-16l-15 0z"/>
<glyph glyph-name="file-trademark" unicode="&#57376;" d="M424 381l-128 128c-2 2-5 3-8 3l-277 0c-6 0-11-5-11-11l0-490c0-6 5-11 11-11l405 0c6 0 11 5 11 11l0 362c0 3-1 6-3 8z m-211-317c-70 0-128 57-128 128 0 71 58 128 128 128 71 0 128-57 128-128 0-71-57-128-128-128z m64 299l0 128 128-128z m-96-128l-42 0c-6 0-11-5-11-11 0-6 5-11 11-11l10 0 0-74c0-6 5-11 11-11 6 0 11 5 11 11l0 74 10 0c6 0 11 5 11 11 0 6-5 11-11 11z m98-5l-23-31-23 31c-7 9-20 4-20-6l0-85c0-6 5-11 11-11 6 0 11 5 11 11l0 53 12-17c5-5 14-5 18 0l12 17 0-53c0-6 5-11 11-11 6 0 11 5 11 11l0 85c0 10-13 14-20 6z"/>
<glyph glyph-name="arrow-down-10" unicode="&#57377;" d="M511 464c-2 3-6 5-10 5l-490 0c-4 0-8-2-10-5-2-3-1-8 1-11l245-405c2-3 5-5 9-5 4 0 7 2 9 5l245 405c2 3 3 8 1 11z"/>
<glyph glyph-name="arrow-right-10" unicode="&#57378;" d="M464 265l-405 245c-3 2-7 2-10 1-4-2-6-6-6-10l0-490c0-4 2-8 6-10 1-1 3-1 5-1 2 0 4 0 5 1l405 246c3 2 5 5 5 9 0 4-2 7-5 9z"/>
<glyph glyph-name="school-listening-book" unicode="&#57379;" d="M426 266c-5 89-79 161-170 161-91 0-165-72-170-161-48-6-86-46-86-95 0-53 43-96 96-96 6 0 11 4 11 10l0 171c0 82 67 149 149 149 82 0 149-67 149-149l0-171c0-6 5-10 11-10 53 0 96 43 96 96 0 49-38 89-86 95z m-298-10l0-139c0-6 5-10 11-10 84 0 96-16 96-27l0 176c-20 11-43 11-96 11-6 0-11-5-11-11z m245 11c-11 0-22-1-32-1l0-74c0-6-4-11-10-11-6 0-11 5-11 11l0 72c-24-2-52-1-64-8l0-176c0 11 33 27 117 27 6 0 11 4 11 10l0 139c0 6-5 11-11 11z"/>
<glyph glyph-name="arrow-right-12" unicode="&#57380;" d="M117 0c-6 0-12 3-16 8-8 9-6 22 3 30l258 218-258 218c-9 8-11 21-3 30 8 9 21 11 30 3l277-235c5-4 8-10 8-16 0-6-3-12-8-16l-277-235c-4-3-9-5-14-5z"/>
<glyph glyph-name="arrow-left-12" unicode="&#57381;" d="M395 0c-5 0-10 2-14 5l-277 235c-5 4-8 10-8 16 0 6 3 12 8 16l277 235c9 8 22 6 30-3 8-9 6-22-3-30l-258-218 258-218c9-8 11-21 3-30-4-5-10-8-16-8z"/>
<glyph glyph-name="arrow-left-8" unicode="&#57382;" d="M219 256l215 182c2 2 3 4 3 7 1 3 0 6-2 8l-47 55c-2 2-5 4-8 4-3 0-5-1-8-3l-283-245c-2-2-4-5-4-8 0-3 2-6 4-8l283-245c2-2 5-3 7-3 1 0 1 0 1 0 3 0 6 1 8 4l47 55c2 2 3 5 2 7 0 3-1 6-3 8z"/>
<glyph glyph-name="arrow-right-8" unicode="&#57383;" d="M423 264l-283 245c-3 2-5 3-8 3-3 0-6-2-8-4l-47-55c-2-2-3-5-2-8 0-3 1-5 3-7l215-182-215-182c-2-2-3-5-3-8-1-2 0-5 2-7l47-55c2-3 5-4 8-4 0 0 0 0 1 0 2 0 5 1 7 3l283 245c2 2 4 5 4 8 0 3-2 6-4 8z"/>
<glyph glyph-name="control-play" unicode="&#57384;" d="M507 266l-491 245c-7 3-15-2-15-10l0-490c0-8 8-13 15-10l491 245c8 4 8 16 0 20z"/>
<glyph glyph-name="control-pause" unicode="&#57385;" d="M224 512l-107 0c-6 0-10-5-10-11l0-490c0-6 4-11 10-11l107 0c6 0 11 5 11 11l0 490c0 6-5 11-11 11z m171 0l-107 0c-6 0-11-5-11-11l0-490c0-6 5-11 11-11l107 0c6 0 10 5 10 11l0 490c0 6-4 11-10 11z"/>
<glyph glyph-name="volume-down-1" unicode="&#57386;" d="M501 277l-170 0c-6 0-11-4-11-10 0-6 5-11 11-11l170 0c6 0 11 5 11 11 0 6-5 10-11 10z m-242 211l-146-147-70 0c-24 0-43-19-43-42l0-64c0-24 19-43 43-43l70 0 146-146c7-7 18-2 18 7l0 427c0 9-11 14-18 8z"/>
<glyph glyph-name="volume-max-1" unicode="&#57387;" d="M259 488l-146-147-70 0c-24 0-43-19-43-42l0-64c0-24 19-43 43-43l70 0 146-146c7-7 18-2 18 7l0 427c0 9-11 14-18 8z m175-43c-5 4-11 4-15-1-4-4-4-11 1-15 94-82 94-242 0-325-5-4-5-11-1-15 4-5 10-5 15-1 104 91 104 266 0 357z m-54-42c-4 4-11 3-15-2-4-4-3-11 2-15 79-65 79-173 0-239-5-4-6-11-2-15 4-5 11-5 15-2 90 75 90 199 0 273z m-43-53c-5 3-11 2-15-2-3-5-2-12 2-15 52-38 51-96 0-132-4-4-5-10-2-15 4-5 10-6 15-3 63 46 63 121 0 167z"/>
<glyph glyph-name="volume-medium-1" unicode="&#57388;" d="M259 488l-146-147-70 0c-24 0-43-19-43-42l0-64c0-24 19-43 43-43l70 0 146-146c7-7 18-2 18 7l0 427c0 9-11 14-18 8z m121-85c-4 4-11 3-15-2-4-4-3-11 2-15 79-65 79-173 0-239-5-4-6-11-2-15 4-5 11-5 15-2 90 75 90 199 0 273z m-43-53c-5 3-11 2-15-2-3-5-2-12 2-15 52-38 51-96 0-132-4-4-5-10-2-15 4-5 10-6 15-3 63 46 63 121 0 167z"/>
<glyph glyph-name="flow-chart-2" unicode="&#57389;" d="M501 277l-202 0 0 22c0 23-19 42-43 42l-64 0c-12 0-21 10-21 22l0 64 117 0c6 0 11 4 11 10l0 64c0 6-5 11-11 11l-277 0c-6 0-11-5-11-11l0-64c0-6 5-10 11-10l138 0 0-64c0-24 19-43 43-43l64 0c12 0 21-10 21-21l0-22-53 0c-6 0-11-4-11-10l0-64c0-6 5-11 11-11l160 0 0-107c0-11-10-21-21-21l-64 0 0 11c0 6-5 10-11 10l-277 0c-6 0-11-4-11-10l0-64c0-6 5-11 11-11l277 0c6 0 11 5 11 11l0 32 64 0c23 0 42 19 42 42l0 107 96 0c6 0 11 5 11 11l0 64c0 6-5 10-11 10z"/>
<glyph glyph-name="loading-1" unicode="&#57390;" d="M501 363c0-42-33-75-74-75-42 0-75 33-75 75 0 41 33 74 75 74 41 0 74-33 74-74z m-160 85c0-35-28-64-64-64-35 0-64 29-64 64 0 35 29 64 64 64 36 0 64-29 64-64z m-149-43c0-35-29-64-64-64-35 0-64 29-64 64 0 36 29 64 64 64 35 0 64-28 64-64z m-85-128c0-29-24-53-54-53-29 0-53 24-53 53 0 30 24 54 53 54 30 0 54-24 54-54z m32-128c0-29-24-53-54-53-29 0-53 24-53 53 0 30 24 54 53 54 30 0 54-24 54-54z m96-85c0-24-19-43-43-43-24 0-43 19-43 43 0 24 19 43 43 43 24 0 43-19 43-43z m104-3c0-18-15-32-32-32-18 0-32 14-32 32 0 18 14 32 32 32 17 0 32-14 32-32z m66 38c0-12-9-22-21-22-12 0-21 10-21 22 0 11 9 21 21 21 12 0 21-10 21-21z m49 50c0-11-10-21-21-21-12 0-22 10-22 21 0 12 10 22 22 22 11 0 21-10 21-22z m15 54c0-6-4-11-10-11-6 0-11 5-11 11 0 6 5 10 11 10 6 0 10-4 10-10z"/>
<glyph glyph-name="network-world" unicode="&#57391;" d="M447 314c12-7 21-18 25-32 22 5 29 8 37 12-6 40-21 77-44 109-3-26-8-56-18-89z m-382 112c30-34 52-78 61-126 32-3 57-34 47-68 25-17 51-41 64-54 26 13 55-3 61-29 3 1 6 1 10 1 1 29 30 49 58 38 8 13 16 26 22 38-12 9-19 22-20 37-56 13-106 45-142 90-35-14-71 12-72 48l-1 0c-29 8-56 21-78 36-3-3-6-7-10-11z m206-326c-25-9-49 5-56 28-28 2-56 5-85 9-5-12-17-21-32-19-7-13-17-29-26-39 28-29 62-51 100-65 43 24 76 47 106 74-2 4-5 8-7 12z m230 83c10 33 12 60 10 89-10-5-27-9-38-12-4-30-34-52-66-43-7-13-15-28-24-42 4-4 7-10 9-16 34 5 70 13 109 24z m-344 239c4 11 12 20 22 26-5 20-6 30-8 49-29-10-56-25-79-45 19-13 41-23 65-30z m-31-228c-2-8-3-15-5-20 5-4 8-9 10-15 28-5 56-8 84-9 1 5 3 10 6 14-17 17-39 35-58 49-9-11-23-18-37-19z m118 171c32-40 76-68 126-81 7 23 29 40 57 37 9 33 18 72 18 107-13 14-27 27-43 38-30-32-84-63-143-72-2-11-7-21-15-29z m-45 90c29 4 53-14 59-39 51 8 99 34 126 62-56 32-123 43-192 26 1-20 3-30 7-49z m90-386c-27-24-56-45-88-63 0 0 0 0 0 0 40-9 77-8 115 1-7 22-11 33-27 62z m102 68c-7-25-34-39-59-26-9-10-18-19-27-27 20-35 24-49 32-71 71 24 128 77 156 146-35-10-64-16-102-22z m-314 139c7 10 16 17 28 21-9 44-29 83-54 112-25-33-42-73-48-116 21-3 39-5 74-17z m-68-87c20-8 46-14 66-19l1 0c6 7 15 11 24 11 1 0 1 0 1 0 1 5 2 10 3 15-23 9-40 33-35 60-31 10-47 13-68 16-2-26-1-51 8-83z m304-60c-6 0-11-1-16-1-2-6-5-11-9-16 2-3 4-6 6-10 8 7 14 15 21 22-1 2-1 3-2 5z m-235-3c-6 6-10 14-10 23 0 1 1 1 1 1-19 4-34 8-51 13 9-25 23-48 39-68 8 8 16 22 21 31z"/>
<glyph glyph-name="file-new-1" unicode="&#57392;" d="M445 381l-128 128c-2 2-5 3-8 3l-234 0c-6 0-11-5-11-11l0-490c0-6 5-11 11-11l362 0c6 0 11 5 11 11l0 362c0 3-1 6-3 8z m-146-18l0 128 128-128z"/>
<glyph glyph-name="list-number" unicode="&#57393;" d="M151 384l340 0c11 0 21 10 21 21 0 12-10 22-21 22l-340 0c-12 0-22-10-22-22 0-11 10-21 22-21z m340-128l-340 0c-12 0-22-10-22-21 0-12 10-22 22-22l340 0c11 0 21 10 21 22 0 11-10 21-21 21z m0-171l-340 0c-12 0-22-9-22-21 0-12 10-21 22-21l340 0c11 0 21 9 21 21 0 12-10 21-21 21z m-459 328l16 12 0-52c0-9 7-16 16-16 9 0 16 7 16 16l0 84c0 13-15 21-26 13l-41-31c-7-6-8-16-3-23 5-7 15-8 22-3z m33-194l-10 0c16 17 25 23 25 47 0 20-17 37-37 37-21 0-37-16-37-37 0-9 7-16 16-16 9 0 16 7 16 16 0 3 2 5 5 5 3 0 5-2 5-5 0-8 0-9-10-19-7-8-17-18-30-35-7-10 0-25 13-25l44 0c9 0 16 7 16 16 0 8-7 16-16 16z m12-110c7 10 0 24-13 24l-41 0c-9 0-16-7-16-16 0-9 7-16 16-16l11 0-5-8c-7-10 1-24 14-24 3 0 4-1 4-1 2-2 1-9 1-9-2-1-23 0-25 0-9 0-16-8-16-16 0-9 7-16 16-16l20 0c23 0 37 13 37 37 0 13-4 23-13 29z"/>
<glyph glyph-name="arrow-box-right-4" unicode="&#57394;" d="M501 512l-490 0c-6 0-11-5-11-11l0-490c0-6 5-11 11-11l490 0c6 0 11 5 11 11l0 490c0 6-5 11-11 11z m-131-264l-130-117c-2-2-5-3-8-3l-83 0c-4 0-8 3-10 7-1 4 0 9 3 12l129 109-129 109c-3 3-4 8-3 12 2 4 6 7 10 7l83 0c3 0 6-1 8-3l130-117c2-2 3-5 3-8 0-3-1-6-3-8z"/>
<glyph glyph-name="arrow-box-up-1" unicode="&#57395;" d="M501 512l-490 0c-6 0-11-5-11-11l0-490c0-6 5-11 11-11l490 0c6 0 11 5 11 11l0 490c0 6-5 11-11 11z m-273-214c-4 1-8 1-12-3l-67-67 0 66 107 97 107-97 0-66-67 67c-3 3-8 4-12 3-4-2-7-6-7-10l0-181-42 0 0 181c0 4-3 8-7 10z"/>
<glyph glyph-name="arrow-box-up-2" unicode="&#57396;" d="M501 512l-490 0c-6 0-11-5-11-11l0-490c0-6 5-11 11-11l490 0c3 0 6 1 8 3 2 2 3 5 3 8l0 490c0 6-5 11-11 11z m-261-69l43 0 0-43-43 0z m-117-235l-43 0 0 43 43 0z m64 0l-43 0 0 43 43 0z m0 64l-43 0 0 43 43 0z m64-191l-43 0 0 42 43 0z m0 63l-43 0 0 43 43 0z m0 64l-43 0 0 43 43 0z m0 64l-43 0 0 43 43 0z m0 64l-43 0 0 43 43 0z m64-255l-43 0 0 42 43 0z m0 63l-43 0 0 43 43 0z m0 64l-43 0 0 43 43 0z m0 64l-43 0 0 43 43 0z m0 64l-43 0 0 43 43 0z m64-128l-43 0 0 43 43 0z m0 64l-43 0 0 43 43 0z m63-64l-42 0 0 43 42 0z"/>
<glyph glyph-name="email-send-1" unicode="&#57397;" d="M7 287c-4-1-7-5-7-10 0-4 3-8 7-10l177-68 310 289z m185-110l0 0 0-145c0-6 5-11 11-11 3 0 7 2 9 6l70 120 129-71c3-2 6-2 9 0 3 1 6 4 6 7l85 393z"/>
<glyph glyph-name="cursor-select-area" unicode="&#57398;" d="M509 18l-106 106 60 26c9 4 9 16 0 20l-181 75c-9 3-18-6-14-14l75-182c3-8 15-9 19 0l26 60 106-106c4-4 11-4 15 0 4 4 4 11 0 15z m-509 345c0-12 10-22 22-22 12 0 21 10 21 22l0 32c0 11-9 21-21 21-12 0-22-10-22-21z m0-96c0-12 10-22 22-22 12 0 21 10 21 22l0 32c0 11-9 21-21 21-12 0-22-10-22-21z m363 128c0 11-9 21-21 21-12 0-22-10-22-21l0-32c0-12 10-22 22-22 12 0 21 10 21 22z m-21-75c-12 0-22-10-22-21l0-22c0-11 10-21 22-21 12 0 21 10 21 21l0 22c0 11-9 21-21 21z m-342-149c0-12 10-22 22-22l32 0c12 0 21 10 21 22 0 11-9 21-21 21l-11 0 0 11c0 11-9 21-21 21-12 0-22-10-22-21z m0 288c0-12 10-22 22-22 12 0 21 10 21 22l0 10 11 0c12 0 21 10 21 22 0 11-9 21-21 21l-32 0c-12 0-22-10-22-21z m150 53l-32 0c-12 0-22-10-22-21 0-12 10-22 22-22l32 0c12 0 21 10 21 22 0 11-9 21-21 21z m0-320l-32 0c-12 0-22-10-22-21 0-12 10-22 22-22l32 0c12 0 21 10 21 22 0 11-9 21-21 21z m85 0l-21 0c-12 0-22-10-22-21 0-12 10-22 22-22l21 0c12 0 21 10 21 22 0 11-9 21-21 21z m0 320l-21 0c-12 0-22-10-22-21 0-12 10-22 22-22l21 0c12 0 21 10 21 22 0 11-9 21-21 21z m128-21c0 11-9 21-21 21l-32 0c-12 0-22-10-22-21 0-12 10-22 22-22l10 0 0-10c0-12 10-22 22-22 12 0 21 10 21 22z"/>
<glyph glyph-name="reply" unicode="&#57399;" d="M229 343c-6 0-11-1-16-1l0 74c0 4-2 8-6 10-3 1-8 1-11-2l-181-149c-3-2-4-5-4-8 0-4 1-7 4-9l181-149c3-3 8-3 11-1 4 1 6 5 6 9l0 77c11 3 33 7 59 7 59 0 140-19 188-110 2-4 7-7 12-5 5 1 8 5 8 10 0 229-192 247-251 247z"/>
<glyph glyph-name="radar-screen" unicode="&#57400;" d="M405 288c0 6 3 11 6 14-7 22-18 42-33 59l-38-38c15-18 25-41 25-67 0-53-39-97-90-105-3-7-10-12-19-12-9 0-16 5-20 13-48 10-85 53-85 104 0 59 48 107 107 107 26 0 49-10 67-25l38 38c-28 25-65 40-105 40-88 0-160-72-160-160 0-19 3-37 9-53 12-1 21-10 21-22 0-4-2-8-4-12 28-44 78-73 134-73 88 0 160 72 160 160 0 4 0 9-1 13-7 4-12 11-12 19z m-62-32c0 20-7 38-18 52l-59-60c-3-2-5-3-8-3-3 0-5 1-8 3-4 5-4 11 0 16l60 59c-14 11-32 18-52 18-47 0-85-38-85-85 0-41 28-75 66-83 4 5 10 8 17 8 7 0 13-3 17-9 40 7 70 42 70 84z m-85 256c-141 0-256-115-256-256 0-141 115-256 256-256 141 0 256 115 256 256 0 141-115 256-256 256z m-151-96c11 0 21-10 21-21 0-12-10-22-21-22-12 0-22 10-22 22 0 11 10 21 22 21z m256-363c-12 0-22 10-22 22 0 11 10 21 22 21 11 0 21-10 21-21 0-12-10-22-21-22z m76 203c0-100-81-181-181-181-65 0-122 34-154 86-10 1-19 9-19 20 0 4 2 8 4 11-8 20-12 41-12 64 0 100 81 181 181 181 46 0 88-17 120-46l21 22c5 4 11 4 16 0 4-5 4-11 0-16l-22-21c18-19 31-42 39-68 9-2 16-10 16-20 0-7-4-13-9-17 0-5 0-10 0-15z"/>
<glyph glyph-name="paint-palette" unicode="&#57401;" d="M437 421c-100 100-262 100-362 0-100-100-100-262 0-362 21-21 55-21 75 0 21 21 21 54 0 75-10 10 6 25 16 15l90-90c50-50 131-50 181 0 100 100 100 262 0 362z m-196-76c-13-12-33-12-45 0-13 13-13 33 0 46 12 12 32 12 45 0 12-13 12-33 0-46z m83 23c12 13 33 13 45 0 13-12 13-33 0-45-12-13-33-13-45 0-13 12-13 33 0 45z m53-264c-17-17-44-17-61 0-16 17-16 44 0 60 17 17 44 17 61 0 16-16 16-43 0-60z m43 121c-8-9-21-9-30 0-8 8-8 22 0 30 9 8 22 8 30 0 9-8 9-22 0-30z"/>
<glyph glyph-name="globe-3" unicode="&#57402;" d="M330 384l-148 0c-14-34-21-70-22-107l192 0c-1 37-8 73-22 107z m-190-128l-140 0c1-38 10-74 25-107l135 0c-12 36-19 72-20 107z m116-242l2 3c28 37 49 74 64 111l-132 0c15-37 36-74 64-111z m96 242l-192 0c2-35 8-71 21-107l150 0c13 36 20 72 21 107z m0 128c13-34 19-70 20-107l139 0c-3 39-15 75-33 107z m-320 0c-18-32-29-68-31-107l139 0c1 37 8 73 20 107z m321-235l135 0c15 33 24 69 24 107l-140 0c-1-35-7-71-19-107z m-116-145c-31 41-54 83-70 124l-131 0c42-72 117-122 204-127z m108 124c-16-41-39-83-70-123l-2-4c87 6 162 55 204 127l-132 0z m-176 277c16 37 39 71 69 103l2 3c-82-4-152-45-195-106z m106 103c29-32 52-66 68-103l121 0c-44 61-113 101-192 106z m-19-11l-3-3c-26-28-46-58-61-89l128 0c-15 31-35 61-61 89z"/>
<glyph glyph-name="network" unicode="&#57403;" d="M469 245c-14 0-28-7-35-19l-58 24c14 32 10 69-13 98l85 85c29-17 64 4 64 36 0 24-19 43-43 43-32 0-53-35-36-64l-85-85c-46 37-114 24-143-28l-120 52c5 27-16 50-42 50-24 0-43-19-43-42 0-24 19-43 43-43 13 0 24 6 32 16l121-52c-9-30-3-63 17-88l-149-149c-29 17-64-4-64-36 0-24 19-43 43-43 32 0 53 35 36 64l149 149c14-11 31-18 49-20l0-109c-18-5-32-22-32-41 0-24 19-43 43-43 24 0 43 19 43 43 0 19-14 36-32 41l0 109c27 3 51 17 66 38l62-25c-2-26 19-46 42-46 24 0 43 19 43 43 0 23-19 42-43 42z"/>
<glyph glyph-name="artist" unicode="&#57404;" d="M213 331c-18 0-32-3-32-22 0-6 5-10 11-10 6 0 11 4 11 10 2 0 19 0 21 0 0-6 5-10 11-10 6 0 10 4 10 10 0 19-14 22-32 22z m86 0c-18 0-32-3-32-22 0-6 4-10 10-10 6 0 11 4 11 10 2 0 19 0 21 0 0-6 5-10 11-10 6 0 11 4 11 10 0 19-14 22-32 22z m182-182l-9-20c12-12 19-27 19-49l0-59-67 0-10-21 87 0c6 0 11 5 11 11l0 69c0 33-12 54-31 69z m-65 14c-11 7-19 15-25 22l-101-169c-5-7 0-16 9-16l85 0c4 0 8 2 10 6l63 143c-13 1-27 5-41 14z m78 143c-15-14-33-23-49-31-17-9-32-17-40-29-14-23-6-47 23-65 25-16 52-17 68 8 7 12 8 29 8 49 1 17 1 38 7 57 4 11-9 19-17 11z m-57 99c-11 20-45 65-145 55 5 14 15 31 28 31 6 0 11 4 11 10 0 6-5 11-11 11-27 0-41-26-48-44-20 17-64 44-139 44-46 0-81-46-64-99 7-20 21-35 40-43l8-54c-1-5-2-11-2-17 0-21 9-36 24-41 3-28 18-52 37-70-88-12-176-19-176-108l0-69c0-6 5-11 11-11l258 0c-3 9-3 19 2 27l22 37-90 0c-18 0-32 14-32 32l0 70c9 1 19 3 28 4 21-13 43-21 57-21 14 0 36 8 57 21 9-1 19-3 28-4l0-22 24 40c-3 1-23 3-29 4 19 18 34 42 37 70 15 5 24 20 24 41 0 10-2 18-6 25 45 6 67 38 46 81z m-330-384l-86 0 0 59c0 48 32 65 86 76z m256 256c-6 0-11-4-11-10 0-56-67-96-96-96-29 0-96 40-96 96 0 6-5 10-11 10-10 0-13 14-13 22 0 7 3 21 13 21 6 0 11 5 11 11 0 6-5 10-11 10-5 0-9-1-14-3l-4 25c3 0 6 0 9 0l92 0c-26 23-49 53-60 68-3 5-1 12 3 15 5 3 12 2 15-3 15-22 48-62 79-81 0 0 0 0 0 0 26-18 56-31 84-36 2-4 5-6 10-6 10 0 13-14 13-21 0-10-4-22-13-22z"/>
<glyph glyph-name="group-lock" unicode="&#57405;" d="M501 171l-10 0 0 10c0 42-34 75-75 75-41 0-75-33-75-75l0-10-10 0c-6 0-11-5-11-11l0-149c0-6 5-11 11-11l170 0c6 0 11 5 11 11l0 149c0 6-5 11-11 11z m-138 10c0 30 24 54 53 54 29 0 53-24 53-54l0-10-106 0z m64-92l0-36c0-6-5-10-11-10-6 0-11 4-11 10l0 36c-6 3-10 10-10 18 0 11 9 21 21 21 12 0 21-10 21-21 0-8-4-15-10-18z m-118 402c-20 0-39-8-54-21 15-18 26-41 30-66 12 5 23 12 28 21 1 3 5 5 9 6 4-1 7-2 9-6 14-24 28-32 52-27 7 2 13 3 19 5-10 50-47 88-93 88z m-189-93c21 0 47 13 54 27 2 3 5 5 9 6 4-1 8-2 10-6 14-24 28-32 51-27 7 2 14 3 19 5-9 50-47 88-92 88-43 0-79-34-91-80 21-13 30-13 40-13z m179-238c0 14 9 26 21 30 1 8 3 15 5 22-6 7-14 13-24 16l-77 28 0 31c25 20 42 55 41 95-12-5-28-7-33-7-20 0-36 9-49 27-16-15-40-25-63-25-14 0-25 2-43 12-4-43 14-81 40-102l0-31-77-28c-24-9-40-32-40-58l0-31c0-6 5-11 11-11l288 0z m36 72c7 11 16 21 28 29l0 26c25 20 42 55 41 95-12-5-28-7-33-7-20 0-36 9-50 27-9-9-21-16-34-20 1-37-11-70-31-95l0-20 52-19c10-3 19-9 27-16z"/>
<glyph glyph-name="picture-3" unicode="&#57406;" d="M427 367l0-282-302 0-3-22c-1-6 3-12 9-13l319-29c6 0 11 4 12 10l29 319c0 6-4 11-10 11-47 5-37 4-54 6z m-22-196c-83 0-301 0-384 0l0-54c0-6 5-10 11-10l363 0c6 0 10 4 10 10z m-254 122c4 7 13 7 17 2l43-51 46 102c4 8 16 8 20-1l61-153 67 0 0 288c0 6-4 11-10 11l-363 0c-6 0-11-5-11-11l0-288 69 0z m-23 134c24 0 43-19 43-43 0-24-19-43-43-43-24 0-43 19-43 43 0 24 19 43 43 43z"/>
<glyph glyph-name="graph-line-2" unicode="&#57407;" d="M469 203c24 0 43 19 43 42 0 24-19 43-43 43-27 0-49-26-41-54l-75-44c-23 24-63 13-71-19l-76 0c-5 18-22 32-41 32-28 0-50-26-41-55l-103-68 0 171 131 79c19-19 51-16 65 7l84-27c0-26 21-43 43-43 35 0 55 40 34 68l72 92c29-14 62 7 62 38 0 24-19 43-43 43-23 0-42-19-42-43 0-9 2-17 7-24l-73-93c-5 3-11 4-17 4-16 0-29-9-37-21l-83 27c1 26-20 45-43 45-27 0-49-27-40-55l-120-72 0 215c0 6-4 10-10 10-6 0-11-4-11-10l0-480c0-6 5-11 11-11l480 0c6 0 10 5 10 11 0 6-4 10-10 10l-470 0 0 34 114 74c23-22 63-11 71 20l76 0c4-18 21-32 41-32 27 0 49 26 41 54l75 44c8-7 18-12 30-12z"/>
<glyph glyph-name="flowchart" unicode="&#57408;" d="M448 512l0-128-107 0 0 32c0 6-4 11-10 11l-278 0c-6 0-10-5-10-11l0-85c0-6 4-11 10-11l278 0c6 0 10 5 10 11l0 32 107 0 0-128-107 0 0 32c0 6-4 10-10 10l-278 0c-6 0-10-4-10-10l0-86c0-6 4-10 10-10l278 0c6 0 10 4 10 10l0 32 107 0 0-128-107 0 0 32c0 6-4 11-10 11l-278 0c-6 0-10-5-10-11l0-85c0-6 4-11 10-11l278 0c6 0 10 5 10 11l0 32 118 0c6 0 10 5 10 11l0 437z"/>
<glyph glyph-name="network-search" unicode="&#57409;" d="M324 405c-23 48-49 76-68 97-19-21-45-49-68-97z m-188-149l-136 0c0-38 9-74 24-107l133 0c-13 36-19 72-21 107z m211 149l116 0c-42 60-109 100-186 106 27-30 51-61 70-106z m-183-277l-129 0c41-71 116-121 202-127-28 36-54 81-73 127z m192 149c-1 37-8 73-22 107l-156 0c-14-34-21-70-22-107z m-191 128c19 43 41 74 70 106-77-6-144-46-187-106z m191-21c13-34 19-70 20-107l135 0c-3 39-15 75-34 107z m-355-107l135 0c1 37 7 73 20 107l-121 0c-19-32-31-68-34-107z m309-225c-11-18-23-36-35-51 31 2 60 10 87 23-20 4-38 14-52 28z m-33 76l-90 0c18-42 42-82 69-117 14 18 27 38 39 58-11 17-18 37-18 59z m76 102c1 8 2 17 2 26l-198 0c1-35 8-71 21-107l102 0c7 39 36 69 73 81z m31 5c51 0 95-37 104-85 15 32 24 68 24 106l-136 0c-1-7-1-15-2-22 3 0 7 1 10 1z m125-217l-58 58c11 14 18 32 18 52 0 47-38 85-85 85-47 0-85-38-85-85 0-47 38-85 85-85 20 0 38 7 52 18l58-58c4-4 11-4 15 0 4 4 4 11 0 15z m-189 110c0 35 29 64 64 64 35 0 64-29 64-64 0-35-29-64-64-64-35 0-64 29-64 64z"/>
<glyph glyph-name="key-1" unicode="&#57410;" d="M501 512l-64 0c-3 0-5-1-7-3l-204-204c-59 27-131 17-179-32-63-62-63-164 0-226 62-63 164-63 226 0 49 48 59 120 32 179l62 62 28 0c5 0 10 5 10 11l0 27 5 5 27 0c6 0 11 4 11 10l0 28 4 4 28 0c6 0 11 5 11 11l0 28 18 18c2 2 3 4 3 7l0 64c0 6-5 11-11 11z m-414-425c-17 17-17 44 0 60 17 17 44 17 60 1 17-17 17-44 0-61-16-16-43-16-60 0z"/>
<glyph glyph-name="user-login" unicode="&#57411;" d="M139 341c47 0 85 39 85 86 0 47-38 85-85 85-47 0-86-38-86-85 0-47 39-86 86-86z m0 150c35 0 64-29 64-64 0-36-29-64-64-64-36 0-64 28-64 64 0 35 28 64 64 64z m117-171l-235 0c-6 0-10-5-10-11 0-103 44-147 74-166l0-132c0-6 5-11 11-11l85 0c6 0 11 5 11 11l0 132c30 19 75 63 75 166 0 6-5 11-11 11z m-80-161c-3-2-5-6-5-10l0-128-64 0 0 128c0 4-2 8-6 10-42 23-67 72-69 140l213 0c-2-68-26-117-69-140z m333 201l-64 64c-4 4-11 4-15 0-4-5-4-11 0-16l46-45-167 0c-6 0-10-5-10-11 0-6 4-11 10-11l167 0-46-45c-4-5-4-11 0-16 4-4 11-4 15 0l64 64c4 5 4 11 0 16z"/>
<glyph glyph-name="tag" unicode="&#57412;" d="M165 384c0 10-4 19-11 26-7 7-16 11-26 11-10 0-19-4-26-11-7-7-11-16-11-26 0-10 4-19 11-26 7-7 16-11 26-11 10 0 19 4 26 11 7 7 11 16 11 26z m304-165c0-10-3-18-10-25l-140-141c-8-7-17-10-26-10-11 0-19 3-26 10l-204 205c-8 7-14 16-19 29-5 12-7 23-7 33l0 119c0 10 3 18 10 26 8 7 16 10 26 10l119 0c10 0 21-2 33-7 13-5 22-11 30-19l204-204c7-7 10-16 10-26z"/>
<glyph glyph-name="tags" unicode="&#57413;" d="M110 384c0 10-4 19-11 26-7 7-16 11-26 11-10 0-19-4-26-11-7-7-10-16-10-26 0-10 3-19 10-26 7-7 16-11 26-11 10 0 19 4 26 11 7 7 11 16 11 26z m305-165c0-10-4-18-11-25l-140-141c-8-7-16-10-26-10-10 0-19 3-26 10l-204 205c-8 7-14 16-19 29-5 12-7 23-7 33l0 119c0 10 3 18 11 26 7 7 15 10 25 10l119 0c10 0 21-2 34-7 12-5 21-11 29-19l204-204c7-7 11-16 11-26z m109 0c0-10-3-18-10-25l-141-141c-7-7-16-10-26-10-6 0-12 1-16 4-5 2-10 7-16 12l135 135c7 7 10 15 10 25 0 10-3 19-10 26l-205 204c-7 8-17 14-29 19-12 5-23 7-33 7l64 0c10 0 21-2 33-7 12-5 22-11 29-19l205-204c7-7 10-16 10-26z"/>
<glyph glyph-name="bold" unicode="&#57414;" d="M321 261c28 5 50 30 50 66 0 39-28 74-83 74l-139 0c-8 0-14-6-14-13l0-264c0-7 6-13 14-13l144 0c55 0 84 35 84 79 0 36-25 66-56 71z m-124 86l77 0c21 0 34-13 34-31 0-18-13-30-34-30l-77 0z m80-182l-80 0 0 66 80 0c24 0 37-14 37-33 0-20-14-33-37-33z"/>
<glyph glyph-name="bold-1" unicode="&#57415;" d="M377 267c30 26 50 75 50 117 0 74-59 128-139 128l-203 0c-11 0-21-10-21-21 0-12 10-22 21-22l43 0 0-426-43 0c-11 0-21-10-21-22 0-11 10-21 21-21l235 0c82 0 149 67 149 149 0 60-37 98-92 118z m-206 202l117 0c57 0 96-35 96-85 0-53-43-107-96-107l-117 0z m149-426l-149 0 0 192 149 0c62 0 107-30 107-86 0-58-48-106-107-106z"/>
<glyph glyph-name="italic" unicode="&#57416;" d="M310 388c0 7-6 13-13 13l-24 0c-7 0-13-6-13-13l0 0-58-261c0 0 0 0 0 0l0 0 0 0c0-1 0-2 0-3 0-7 5-12 12-13l0 0 25 0c7 0 12 5 13 12l0 0 58 261 0 0c0 1 0 2 0 4z"/>
<glyph glyph-name="italic-1" unicode="&#57417;" d="M491 512l-171 0c-12 0-21-10-21-21 0-12 9-22 21-22l46 0-271-426-74 0c-11 0-21-10-21-22 0-11 10-21 21-21l171 0c12 0 21 10 21 21 0 12-9 22-21 22l-46 0 271 426 74 0c11 0 21 10 21 22 0 11-10 21-21 21z"/>
<glyph glyph-name="underline" unicode="&#57418;" d="M397 125c0 0-1 0-1 0l0 0-281 0 0 0c-9 0-15-7-15-15 0-8 6-15 15-15l0-1 281 0 0 1c0 0 1-1 1-1 8 0 15 7 15 16 0 8-7 15-15 15z m-141 18c81 0 121 46 121 115l0 145c0 8-7 15-15 15l-20 0c-8 0-15-7-15-15 0-1 0-1 0-1l0-143c0-44-25-73-71-73-46 0-71 29-71 73l0 143c0 0 0 0 0 1 0 8-7 15-15 15l-20 0c-8 0-15-7-15-15l0-145c0-69 40-115 121-115z"/>
<glyph glyph-name="code" unicode="&#57419;" d="M158 112l-14-14c-2-2-4-3-7-3-2 0-5 1-6 3l-134 133c-1 2-2 4-2 7 0 2 1 4 2 6l134 133c1 2 4 3 6 3 3 0 5-1 7-3l14-14c2-2 3-4 3-6 0-3-1-5-3-7l-112-112 112-113c2-1 3-4 3-6 0-3-1-5-3-7z m169 305l-107-369c0-2-2-4-4-5-2-2-5-2-7-1l-18 5c-2 1-4 2-5 4-1 2-2 5-1 7l107 369c0 3 2 4 4 6 2 1 5 1 7 0l18-4c2-1 4-3 5-5 1-2 2-4 1-7z m188-186l-134-133c-1-2-4-3-6-3-3 0-5 1-7 3l-14 14c-2 2-3 4-3 7 0 2 1 5 3 6l112 113-112 112c-2 2-3 4-3 7 0 2 1 4 3 6l14 14c2 2 4 3 7 3 2 0 5-1 6-3l134-133c1-2 2-4 2-6 0-3-1-5-2-7z"/>
<glyph glyph-name="braille" unicode="&#57420;" d="M195 389c0-20-16-36-36-36-19 0-35 16-35 36 0 20 16 36 35 36 20 0 36-16 36-36z m193 0c0-20-16-36-35-36-20 0-36 16-36 36 0 20 16 36 36 36 19 0 35-16 35-36z m-193-133c0-20-16-36-36-36-19 0-35 16-35 36 0 20 16 36 35 36 20 0 36-16 36-36z m193 0c0-20-16-36-35-36-20 0-36 16-36 36 0 20 16 36 36 36 19 0 35-16 35-36z m-193-133c0-20-16-36-36-36-19 0-35 16-35 36 0 20 16 36 35 36 20 0 36-16 36-36z m193 0c0-20-16-36-35-36-20 0-36 16-36 36 0 20 16 36 36 36 19 0 35-16 35-36z"/>
<glyph glyph-name="code-1" unicode="&#57421;" d="M195 402c5-4 8-10 8-16 0-6-3-11-8-15 0 0-126-115-126-115 0 0 126-116 126-116 5-4 8-9 8-15 0-6-3-12-8-16-11-11-21-11-31 0 0 0-164 147-164 147 0 0 164 146 164 146 10 11 20 11 31 0m154 0c0 0 163-146 163-146 0 0-163-147-163-147-11-11-21-11-32 0-10 10-10 21 0 31 0 0 127 116 127 116 0 0-127 115-127 115-10 10-10 21 0 31 11 11 21 11 32 0"/>
<glyph glyph-name="user" unicode="&#57422;" d="M392 142c70-24 105-45 105-62 0 0 0-54 0-54 0 0-241 0-241 0 0 0-241 0-241 0 0 0 0 54 0 54 0 17 35 38 105 62 32 12 54 24 65 36 12 12 18 28 18 48 0 8-4 16-12 25-7 10-12 22-16 38-1 4-2 7-5 9-2 2-4 3-7 4-2 1-4 4-7 9-2 5-4 12-4 22 0 5 0 10 2 13 2 4 3 6 5 6 0 0 2 2 2 2-3 17-5 32-6 45-2 19 5 38 21 58 15 19 42 29 80 29 38 0 65-10 81-29 16-20 22-39 20-58 0 0-6-45-6-45 6-2 9-10 9-21 0-10-2-17-4-22-3-5-5-8-7-9-3-1-5-2-7-4-3-2-4-5-5-9-3-17-8-29-16-38-8-9-12-17-12-25 0-20 6-36 18-48 12-12 34-24 65-36"/>
<glyph glyph-name="adobe-cc" unicode="&#57423;" d="M-28 505l682 0 0-683-682 0z m540-247l0-18c0-1 0-2 0-3-1-8-2-15-3-23-4-25-13-48-25-70-19-32-45-57-78-74-19-10-39-16-60-19-5 0-9-1-14-1l-180 0c-1 0-2 0-2 0-19 2-36 6-53 14-36 16-63 43-81 81-7 16-12 34-14 52-1 4-1 9-2 13l0 18c0 1 0 2 0 2 1 17 5 33 10 49 16 41 42 72 80 92 20 10 41 16 63 17 10 1 21 0 32-1 1-1 2 0 3 1 15 16 32 29 52 40 19 9 39 16 60 18 5 1 10 1 15 2l16 0c1 0 2 0 3 0 7-1 15-2 22-3 24-4 46-13 66-27 31-20 55-47 71-82 9-20 15-41 17-63 1-5 1-10 2-15z m-286 115c0-1 0-1 0-1 11-5 21-12 30-19 1-1 2 0 3 0 26 18 54 24 85 18 30-6 54-21 72-46 21-29 29-61 23-96-3-24-12-46-28-64-28-32-63-46-105-40-25 3-47 15-66 34-23 25-47 50-70 75-3 3-7 6-11 7-8 1-15-4-19-11-3-7-2-14 4-21 26-27 52-55 79-82 4-4 9-9 14-13 19-14 41-22 64-26 18-2 36-2 54 3 35 8 63 26 86 55 18 24 29 51 33 81 3 17 2 35-1 52-5 28-17 54-35 75-34 41-77 59-129 55-20-1-39-8-56-17-10-6-19-12-27-19z m-13-285c-1 0-1 1-2 2-11 10-22 21-32 32-2 2-4 3-7 3-11 0-21-1-32 2-52 12-83 73-64 126 16 41 58 67 100 59 18-3 35-12 48-26 17-18 33-36 50-53 4-4 8-6 13-5 7 1 13 4 15 11 2 7 1 13-4 19-17 18-34 37-52 55-35 35-77 45-123 30-61-20-97-87-83-153 13-60 63-102 121-103 17 0 33 0 49 0 1 0 2 1 3 1z"/>
<glyph glyph-name="creative-cloud-icon" unicode="&#57424;" d="M433 148c-17-17-36-28-56-36-6-2-13-4-20-6-10-2-20-4-31-4-1 0-2 0-3 0-35 0-70 13-97 35-4 4-8 7-11 11l-8 7-17 17-47 48c-7 6-7 18 0 25 3 3 8 5 12 5 5 0 9-2 12-5l71-72c7-7 15-12 22-17 18-12 40-18 62-18 10 0 20 1 29 3 6 2 11 4 17 7 14 6 26 14 38 25 46 47 46 121 0 168-23 23-54 34-84 34-23 0-46-6-66-20-10 8-21 14-32 20 28 23 63 35 98 35 39 0 79-15 108-45 62-60 62-158 3-217z m-273-45c-34 0-65 13-89 36-48 49-48 128 0 177 24 24 55 36 89 36l0 0c6 0 12 0 19-1 6-1 12-3 19-5 12-4 23-9 33-16 5-3 10-7 14-11 1-1 2-2 4-3l50-51c7-6 7-18 0-24-3-4-8-6-12-6-5 0-9 2-12 6l-43 42-9 9c-1 1-3 2-4 4-12 11-27 17-42 20-6 1-11 1-17 1-1 0-2 0-3 0-23 0-44-10-61-26-35-35-35-92 0-127 17-17 39-27 64-27l16 0 15-14c7-7 15-15 23-21l-54 0z m297 286c-36 35-83 55-134 55-50 0-97-20-133-55l-4-4c-9 1-18 2-27 2-42 0-83-17-113-47-63-63-63-164 0-226 30-30 71-47 113-47l165 0c1 0 1 0 1 0 50 0 96 19 131 54 74 75 74 194 1 268z"/>
<glyph glyph-name="super-admin-gold-key" unicode="&#57425;" d="M501 512l-64 0c-3 0-5-1-7-3l-204-204c-29 14-61 18-94 12-33-5-62-20-85-44-31-31-47-69-47-113 0-44 16-82 47-113 31-31 69-47 113-47 44 0 82 16 113 47 24 23 39 52 45 85 5 33 1 65-13 94l62 62 28 0c7 0 10 4 10 11l0 27 5 5 27 0c7 0 11 3 11 10l0 28 4 4 28 0c7 0 11 4 11 11l0 28 18 18c2 2 3 4 3 7l0 64c0 7-4 11-11 11z m-414-425c-9 9-13 19-13 30 0 12 4 22 13 30 9 9 19 13 31 13 11 0 21-4 29-12 9-9 13-19 13-31 0-11-4-21-13-30-8-8-18-12-29-12-12 0-22 4-31 12z"/>
<glyph glyph-name="lock-close-3" unicode="&#57427;" d="M384 314l0 70c0 71-57 128-128 128-71 0-128-57-128-128l0-70c-37-13-64-48-64-90l0-128c0-53 43-96 96-96l192 0c53 0 96 43 96 96l0 128c0 42-27 77-64 90z m-128-186c-24 0-43 19-43 43 0 23 19 42 43 42 24 0 43-19 43-42 0-24-19-43-43-43z m107 192l-214 0 0 64c0 59 48 107 107 107 59 0 107-48 107-107z"/>
<glyph glyph-name="id-card-4" unicode="&#57426;" d="M512 437l0-341c0-6-5-11-11-11l-85 0c-6 0-11 5-11 11l0 16c0 15-12 27-26 27-15 0-27-12-27-27l0-16c0-6-5-11-11-11l-170 0c-6 0-11 5-11 11l0 16c0 15-12 27-27 27-14 0-26-12-26-27l0-16c0-6-5-11-11-11l-85 0c-6 0-11 5-11 11l0 341c0 6 5 11 11 11l490 0c6 0 11-5 11-11z m-235-96l86 0 0 22-86 0z m-42-117c0 26-14 56-48 69 10 9 16 23 16 38 0 29-24 53-54 53-29 0-53-24-53-53 0-15 6-29 16-38-35-13-48-43-48-69l0-11 171 0z m213 11l-171 0 0-22 171 0z m0 42l-171 0 0-21 171 0z m0 43l-171 0 0-21 171 0z"/>
</font>
</defs>
</svg>
